Dinish-ExpandedRegular.ufo
<glyph name="exclam" format="2">
  <advance width="244"/>
  <unicode hex="0021"/>
  <outline>
    <contour>
      <point x="89" y="211" type="line"/>
      <point x="157" y="211" type="line"/>
      <point x="174" y="707" type="line"/>
      <point x="71" y="707" type="line"/>
    </contour>
    <contour>
      <point x="71" y="0" type="line"/>
      <point x="174" y="0" type="line"/>
      <point x="174" y="106" type="line"/>
      <point x="71" y="106" type="line"/>
    </contour>
  </outline>
</glyph>
<glyph name="dollar" format="2">
  <advance width="531"/>
  <unicode hex="0024"/>
  <outline>
    <contour>
      <point x="226" y="-60" type="line"/>
      <point x="295" y="-60" type="line"/>
      <point x="295" y="30" type="line"/>
      <point x="419.038" y="40.786"/>
      <point x="489" y="107.863"/>
      <point x="489" y="216" type="curve" smooth="yes"/>
      <point x="489" y="315.428"/>
      <point x="433.466" y="372.922"/>
      <point x="319" y="392" type="curve" smooth="yes"/>
      <point x="261.707" y="401.549" type="line" smooth="yes"/>
      <point x="168.747" y="417.042"/>
      <point x="133" y="445.219"/>
      <point x="133" y="503" type="curve" smooth="yes"/>
      <point x="133" y="567.369"/>
      <point x="177.492" y="601.822"/>
      <point x="260.613" y="601.822" type="curve" smooth="yes"/>
      <point x="343.869" y="601.822"/>
      <point x="386.844" y="567.795"/>
      <point x="393" y="497" type="curve"/>
      <point x="478" y="497" type="line"/>
      <point x="471.439" y="604.601"/>
      <point x="407.477" y="667.514"/>
      <point x="295" y="677" type="curve"/>
      <point x="295" y="759" type="line"/>
      <point x="226" y="759" type="line"/>
      <point x="226" y="676" type="line"/>
      <point x="111.721" y="665.369"/>
      <point x="45" y="599.017"/>
      <point x="45" y="496" type="curve" smooth="yes"/>
      <point x="45" y="401.216"/>
      <point x="98.15" y="348.377"/>
      <point x="216" y="326" type="curve" smooth="yes"/>
      <point x="295" y="311" type="line" smooth="yes"/>
      <point x="372.346" y="296.314"/>
      <point x="401" y="269.012"/>
      <point x="401" y="210" type="curve" smooth="yes"/>
      <point x="401" y="141.284"/>
      <point x="354.436" y="104.377"/>
      <point x="267.736" y="104.377" type="curve" smooth="yes"/>
      <point x="172.34" y="104.377"/>
      <point x="124.685" y="140.616"/>
      <point x="117" y="219" type="curve"/>
      <point x="32" y="219" type="line"/>
      <point x="38.668" y="102.985"/>
      <point x="104.682" y="38.332"/>
      <point x="226" y="29" type="curve"/>
    </contour>
  </outline>
</glyph>
<glyph name="percent" format="2">
  <advance width="938"/>
  <unicode hex="0025"/>
  <outline>
    <contour>
      <point x="233" y="0" type="line"/>
      <point x="308" y="0" type="line"/>
      <point x="698" y="709" type="line"/>
      <point x="623" y="709" type="line"/>
    </contour>
    <contour>
      <point x="187" y="272" type="curve" smooth="yes"/>
      <point x="285.079" y="272"/>
      <point x="335" y="328.667"/>
      <point x="335" y="440" type="curve" smooth="yes"/>
      <point x="335" y="551" type="line" smooth="yes"/>
      <point x="335" y="659.669"/>
      <point x="285.333" y="714"/>
      <point x="188" y="714" type="curve" smooth="yes"/>
      <point x="92.896" y="714"/>
      <point x="42" y="657.178"/>
      <point x="42" y="551" type="curve" smooth="yes"/>
      <point x="42" y="440" type="line" smooth="yes"/>
      <point x="42" y="329.466"/>
      <point x="91.599" y="272"/>
    </contour>
    <contour>
      <point x="188" y="341" type="curve" smooth="yes"/>
      <point x="141.045" y="341"/>
      <point x="121" y="372.114"/>
      <point x="121" y="445" type="curve" smooth="yes"/>
      <point x="121" y="543" type="line" smooth="yes"/>
      <point x="121" y="614.871"/>
      <point x="140.791" y="645"/>
      <point x="188" y="645" type="curve" smooth="yes"/>
      <point x="235.209" y="645"/>
      <point x="255" y="614.871"/>
      <point x="255" y="543" type="curve" smooth="yes"/>
      <point x="255" y="445" type="line" smooth="yes"/>
      <point x="255" y="373.131"/>
      <point x="234.3" y="341"/>
    </contour>
    <contour>
      <point x="748" y="-6" type="curve" smooth="yes"/>
      <point x="846.079" y="-6"/>
      <point x="896" y="50.667"/>
      <point x="896" y="162" type="curve" smooth="yes"/>
      <point x="896" y="273" type="line" smooth="yes"/>
      <point x="896" y="381.669"/>
      <point x="846.333" y="436"/>
      <point x="749" y="436" type="curve" smooth="yes"/>
      <point x="653.896" y="436"/>
      <point x="603" y="379.178"/>
      <point x="603" y="273" type="curve" smooth="yes"/>
      <point x="603" y="162" type="line" smooth="yes"/>
      <point x="603" y="51.466"/>
      <point x="652.599" y="-6"/>
    </contour>
    <contour>
      <point x="749" y="63" type="curve" smooth="yes"/>
      <point x="702.045" y="63"/>
      <point x="682" y="94.114"/>
      <point x="682" y="167" type="curve" smooth="yes"/>
      <point x="682" y="265" type="line" smooth="yes"/>
      <point x="682" y="336.871"/>
      <point x="701.791" y="367"/>
      <point x="749" y="367" type="curve" smooth="yes"/>
      <point x="796.209" y="367"/>
      <point x="816" y="336.871"/>
      <point x="816" y="265" type="curve" smooth="yes"/>
      <point x="816" y="167" type="line" smooth="yes"/>
      <point x="816" y="95.131"/>
      <point x="795.3" y="63"/>
    </contour>
  </outline>
</glyph>
<glyph name="ampersand" format="2">
  <advance width="678"/>
  <unicode hex="0026"/>
  <outline>
    <contour>
      <point x="462" y="205" type="line"/>
      <point x="319" y="376" type="line"/>
      <point x="421.967" y="440.047"/>
      <point x="456" y="485.755"/>
      <point x="456" y="560" type="curve" smooth="yes"/>
      <point x="456" y="653.741"/>
      <point x="387.268" y="718"/>
      <point x="287" y="718" type="curve" smooth="yes"/>
      <point x="188.681" y="718"/>
      <point x="117" y="651.8"/>
      <point x="117" y="561" type="curve" smooth="yes"/>
      <point x="117" y="511.211"/>
      <point x="139.28" y="465.293"/>
      <point x="199" y="392" type="curve"/>
      <point x="99.34" y="328.218"/>
      <point x="53" y="260.612"/>
      <point x="53" y="179" type="curve" smooth="yes"/>
      <point x="53" y="64.703"/>
      <point x="134.679" y="-11"/>
      <point x="258" y="-11" type="curve" smooth="yes"/>
      <point x="334.971" y="-11"/>
      <point x="396.449" y="17.566"/>
      <point x="456" y="81" type="curve"/>
      <point x="475" y="57" type="line"/>
      <point x="514.671" y="13.225"/>
      <point x="541.585" y="0"/>
      <point x="591" y="0" type="curve" smooth="yes"/>
      <point x="626" y="0" type="line"/>
      <point x="626" y="80" type="line"/>
      <point x="605" y="80" type="line" smooth="yes"/>
      <point x="577.069" y="80"/>
      <point x="559.279" y="89.157"/>
      <point x="537" y="115" type="curve" smooth="yes"/>
      <point x="512" y="144" type="line"/>
      <point x="612" y="261" type="line"/>
      <point x="554" y="312" type="line"/>
    </contour>
    <contour>
      <point x="270" y="434" type="curve"/>
      <point x="239.702" y="470.357"/>
      <point x="203" y="521.099"/>
      <point x="203" y="562" type="curve" smooth="yes"/>
      <point x="203" y="611.698"/>
      <point x="236.703" y="645"/>
      <point x="287" y="645" type="curve" smooth="yes"/>
      <point x="337.667" y="645"/>
      <point x="371" y="611.667"/>
      <point x="371" y="561" type="curve" smooth="yes"/>
      <point x="371" y="508.918"/>
      <point x="315.477" y="464.318"/>
    </contour>
    <contour>
      <point x="407" y="140" type="line"/>
      <point x="358.556" y="88.937"/>
      <point x="316.972" y="68"/>
      <point x="264" y="68" type="curve" smooth="yes"/>
      <point x="188.117" y="68"/>
      <point x="139" y="112.795"/>
      <point x="139" y="182" type="curve" smooth="yes"/>
      <point x="139" y="236.333"/>
      <point x="172.722" y="283.481"/>
      <point x="247" y="333" type="curve"/>
    </contour>
  </outline>
</glyph>
<glyph name="parenleft" format="2">
  <advance width="320"/>
  <unicode hex="0028"/>
  <outline>
    <contour>
      <point x="267" y="-86" type="line"/>
      <point x="186.047" y="34.08"/>
      <point x="140" y="187.087"/>
      <point x="140" y="336" type="curve" smooth="yes"/>
      <point x="140" y="482.913"/>
      <point x="186.404" y="637.106"/>
      <point x="267" y="758" type="curve"/>
      <point x="195" y="758" type="line"/>
      <point x="101.678" y="635.348"/>
      <point x="53" y="490.685"/>
      <point x="53" y="336" type="curve" smooth="yes"/>
      <point x="53" y="182.781"/>
      <point x="101.143" y="38.694"/>
      <point x="194" y="-86" type="curve"/>
    </contour>
  </outline>
</glyph>
<glyph name="zero" format="2">
  <advance width="562"/>
  <unicode hex="0030"/>
  <outline>
    <contour>
      <point x="282" y="-10" type="curve" smooth="yes"/>
      <point x="426.765" y="-10"/>
      <point x="502" y="78.23"/>
      <point x="502" y="248" type="curve" smooth="yes"/>
      <point x="502" y="464" type="line" smooth="yes"/>
      <point x="502" y="630.9"/>
      <point x="427.13" y="717"/>
      <point x="282" y="717" type="curve" smooth="yes"/>
      <point x="136.87" y="717"/>
      <point x="62" y="630.9"/>
      <point x="62" y="464" type="curve" smooth="yes"/>
      <point x="62" y="248" type="line" smooth="yes"/>
      <point x="62" y="78.612"/>
      <point x="137.56" y="-10"/>
    </contour>
    <contour>
      <point x="282" y="73" type="curve" smooth="yes"/>
      <point x="194.154" y="73"/>
      <point x="156" y="128.111"/>
      <point x="156" y="255" type="curve" smooth="yes"/>
      <point x="156" y="452" type="line" smooth="yes"/>
      <point x="156" y="578.889"/>
      <point x="194.154" y="634"/>
      <point x="282" y="634" type="curve" smooth="yes"/>
      <point x="370.194" y="634"/>
      <point x="409" y="578.388"/>
      <point x="409" y="452" type="curve" smooth="yes"/>
      <point x="409" y="255" type="line" smooth="yes"/>
      <point x="409" y="130.613"/>
      <point x="368.798" y="73"/>
    </contour>
  </outline>
</glyph>
<glyph name="three" format="2">
  <advance width="562"/>
  <unicode hex="0033"/>
  <outline>
    <contour>
      <point x="57" y="181" type="line"/>
      <point x="57" y="171" type="line" smooth="yes"/>
      <point x="57" y="57.717"/>
      <point x="138.934" y="-10"/>
      <point x="276" y="-10" type="curve" smooth="yes"/>
      <point x="416.007" y="-10"/>
      <point x="502" y="65.339"/>
      <point x="502" y="188" type="curve" smooth="yes"/>
      <point x="502" y="207" type="line" smooth="yes"/>
      <point x="502" y="290.548"/>
      <point x="460.887" y="350.25"/>
      <point x="387" y="374" type="curve"/>
      <point x="451.946" y="400.255"/>
      <point x="488" y="452.729"/>
      <point x="488" y="521" type="curve" smooth="yes"/>
      <point x="488" y="537" type="line" smooth="yes"/>
      <point x="488" y="650.238"/>
      <point x="410.111" y="717"/>
      <point x="278" y="717" type="curve" smooth="yes"/>
      <point x="144.248" y="717"/>
      <point x="66" y="649.456"/>
      <point x="66" y="534" type="curve" smooth="yes"/>
      <point x="66" y="522" type="line"/>
      <point x="154" y="522" type="line"/>
      <point x="154" y="532" type="line" smooth="yes"/>
      <point x="154" y="600.089"/>
      <point x="195.436" y="636"/>
      <point x="274" y="636" type="curve" smooth="yes"/>
      <point x="353.132" y="636"/>
      <point x="396" y="598.754"/>
      <point x="396" y="530" type="curve" smooth="yes"/>
      <point x="396" y="516" type="line" smooth="yes"/>
      <point x="396" y="446.135"/>
      <point x="350.043" y="407"/>
      <point x="268" y="407" type="curve" smooth="yes"/>
      <point x="227" y="407" type="line"/>
      <point x="227" y="325" type="line"/>
      <point x="269" y="325" type="line" smooth="yes"/>
      <point x="360.47" y="325"/>
      <point x="409" y="284.443"/>
      <point x="409" y="208" type="curve" smooth="yes"/>
      <point x="409" y="188" type="line" smooth="yes"/>
      <point x="409" y="113.155"/>
      <point x="361.801" y="71"/>
      <point x="278" y="71" type="curve" smooth="yes"/>
      <point x="192.964" y="71"/>
      <point x="147" y="106.438"/>
      <point x="147" y="172" type="curve" smooth="yes"/>
      <point x="147" y="181" type="line"/>
    </contour>
  </outline>
</glyph>
<glyph name="four" format="2">
  <advance width="577"/>
  <unicode hex="0034"/>
  <outline>
    <contour>
      <point x="44" y="131" type="line"/>
      <point x="356" y="131" type="line"/>
      <point x="356" y="0" type="line"/>
      <point x="450" y="0" type="line"/>
      <point x="450" y="131" type="line"/>
      <point x="535" y="131" type="line"/>
      <point x="535" y="214" type="line"/>
      <point x="450" y="214" type="line"/>
      <point x="450" y="397" type="line"/>
      <point x="356" y="397" type="line"/>
      <point x="356" y="214" type="line"/>
      <point x="139" y="214" type="line"/>
      <point x="380" y="707" type="line"/>
      <point x="285" y="707" type="line"/>
      <point x="44" y="214" type="line"/>
    </contour>
  </outline>
</glyph>
<glyph name="six" format="2">
  <advance width="565"/>
  <unicode hex="0036"/>
  <outline>
    <contour>
      <point x="299" y="707" type="line"/>
      <point x="126" y="418" type="line"/>
      <point x="74.831" y="338.554"/>
      <point x="56" y="285.019"/>
      <point x="56" y="219" type="curve" smooth="yes"/>
      <point x="56" y="197" type="line" smooth="yes"/>
      <point x="56" y="70.31"/>
      <point x="144.457" y="-10"/>
      <point x="284" y="-10" type="curve" smooth="yes"/>
      <point x="422.597" y="-10"/>
      <point x="511" y="72.172"/>
      <point x="511" y="201" type="curve" smooth="yes"/>
      <point x="511" y="225" type="line" smooth="yes"/>
      <point x="511" y="342.783"/>
      <point x="425.783" y="428"/>
      <point x="308" y="428" type="curve" smooth="yes"/>
      <point x="273.259" y="428"/>
      <point x="239.369" y="421.068"/>
      <point x="220" y="410" type="curve"/>
      <point x="400" y="707" type="line"/>
    </contour>
    <contour>
      <point x="150" y="197" type="curve" smooth="yes"/>
      <point x="150" y="220" type="line" smooth="yes"/>
      <point x="150" y="299.158"/>
      <point x="199.444" y="346"/>
      <point x="283" y="346" type="curve" smooth="yes"/>
      <point x="366.344" y="346"/>
      <point x="419" y="297.603"/>
      <point x="419" y="221" type="curve" smooth="yes"/>
      <point x="419" y="198" type="line" smooth="yes"/>
      <point x="419" y="119.202"/>
      <point x="367.761" y="71"/>
      <point x="284" y="71" type="curve" smooth="yes"/>
      <point x="201.545" y="71"/>
      <point x="150" y="119.468"/>
    </contour>
  </outline>
</glyph>
<glyph name="nine" format="2">
  <advance width="565"/>
  <unicode hex="0039"/>
  <outline>
    <contour>
      <point x="168" y="0" type="line"/>
      <point x="268" y="0" type="line"/>
      <point x="442" y="289" type="line"/>
      <point x="492.268" y="367.799"/>
      <point x="511" y="421.551"/>
      <point x="511" y="487" type="curve" smooth="yes"/>
      <point x="511" y="510" type="line" smooth="yes"/>
      <point x="511" y="636.165"/>
      <point x="422.354" y="717"/>
      <point x="284" y="717" type="curve" smooth="yes"/>
      <point x="144.457" y="717"/>
      <point x="56" y="635.138"/>
      <point x="56" y="506" type="curve" smooth="yes"/>
      <point x="56" y="481" type="line" smooth="yes"/>
      <point x="56" y="364.961"/>
      <point x="142.386" y="279"/>
      <point x="259" y="279" type="curve" smooth="yes"/>
      <point x="296.333" y="279"/>
      <point x="326" y="285"/>
      <point x="348" y="297" type="curve"/>
    </contour>
    <contour>
      <point x="148" y="485" type="curve" smooth="yes"/>
      <point x="148" y="509" type="line" smooth="yes"/>
      <point x="148" y="586.265"/>
      <point x="201.26" y="636"/>
      <point x="284" y="636" type="curve" smooth="yes"/>
      <point x="366.762" y="636"/>
      <point x="419" y="587.244"/>
      <point x="419" y="510" type="curve" smooth="yes"/>
      <point x="419" y="486" type="line" smooth="yes"/>
      <point x="419" y="408.098"/>
      <point x="367.848" y="360"/>
      <point x="285" y="360" type="curve" smooth="yes"/>
      <point x="201.352" y="360"/>
      <point x="148" y="408.679"/>
    </contour>
  </outline>
</glyph>
<glyph name="colon" format="2">
  <advance width="202"/>
  <unicode hex="003A"/>
  <outline>
    <contour>
      <point x="49" y="50" type="line"/>
      <point x="154" y="50" type="line"/>
      <point x="154" y="160" type="line"/>
      <point x="49" y="160" type="line"/>
    </contour>
    <contour>
      <point x="49" y="296" type="line"/>
      <point x="154" y="296" type="line"/>
      <point x="154" y="406" type="line"/>
      <point x="49" y="406" type="line"/>
    </contour>
  </outline>
</glyph>
<glyph name="equal" format="2">
  <advance width="521"/>
  <unicode hex="003D"/>
  <outline>
    <contour>
      <point x="54" y="327" type="line"/>
      <point x="466" y="327" type="line"/>
      <point x="466" y="410" type="line"/>
      <point x="54" y="410" type="line"/>
    </contour>
    <contour>
      <point x="54" y="156" type="line"/>
      <point x="466" y="156" type="line"/>
      <point x="466" y="238" type="line"/>
      <point x="54" y="238" type="line"/>
    </contour>
  </outline>
</glyph>
<glyph name="question" format="2">
  <advance width="496"/>
  <unicode hex="003F"/>
  <outline>
    <contour>
      <point x="197" y="187" type="line"/>
      <point x="287" y="187" type="line"/>
      <point x="287" y="240" type="line" smooth="yes"/>
      <point x="287" y="281.185"/>
      <point x="294.487" y="299.487"/>
      <point x="323" y="328" type="curve" smooth="yes"/>
      <point x="392" y="397" type="line" smooth="yes"/>
      <point x="436.364" y="441.364"/>
      <point x="454" y="487.43"/>
      <point x="454" y="543" type="curve" smooth="yes"/>
      <point x="454" y="651.133"/>
      <point x="374.506" y="717"/>
      <point x="244" y="717" type="curve" smooth="yes"/>
      <point x="111.553" y="717"/>
      <point x="37.685" y="649.493"/>
      <point x="35" y="526" type="curve"/>
      <point x="124" y="526" type="line"/>
      <point x="124" y="598.667"/>
      <point x="163.667" y="635"/>
      <point x="243" y="635" type="curve" smooth="yes"/>
      <point x="319.758" y="635"/>
      <point x="361" y="601.797"/>
      <point x="361" y="540" type="curve" smooth="yes"/>
      <point x="361" y="496.564"/>
      <point x="347.34" y="471.69"/>
      <point x="309" y="434" type="curve" smooth="yes"/>
      <point x="250" y="376" type="line" smooth="yes"/>
      <point x="208.46" y="335.164"/>
      <point x="197" y="306.623"/>
      <point x="197" y="244" type="curve" smooth="yes"/>
    </contour>
    <contour>
      <point x="189" y="0" type="line"/>
      <point x="293" y="0" type="line"/>
      <point x="293" y="105" type="line"/>
      <point x="189" y="105" type="line"/>
    </contour>
  </outline>
</glyph>
<glyph name="A" format="2">
  <advance width="681"/>
  <unicode hex="0041"/>
  <anchor x="340" y="760" name="top"/>
  <anchor x="340" y="663" name="t.ring"/>
  <anchor x="341" y="-86" name="bottom"/>
  <anchor x="670" y="0" name="b.cedilla"/>
  <outline>
    <contour>
      <point x="6" y="0" type="line"/>
      <point x="103" y="0" type="line"/>
      <point x="167" y="160" type="line"/>
      <point x="513" y="160" type="line"/>
      <point x="578" y="0" type="line"/>
      <point x="676" y="0" type="line"/>
      <point x="380" y="707" type="line"/>
      <point x="301" y="707" type="line"/>
    </contour>
    <contour>
      <point x="199" y="239" type="line"/>
      <point x="340" y="592" type="line"/>
      <point x="481" y="239" type="line"/>
    </contour>
  </outline>
</glyph>
<glyph name="E" format="2">
  <advance width="611"/>
  <unicode hex="0045"/>
  <anchor x="316" y="760" name="top"/>
  <anchor x="316" y="-86" name="bottom"/>
  <anchor x="567" y="0" name="b.cedilla"/>
  <outline>
    <contour>
      <point x="74" y="0" type="line"/>
      <point x="567" y="0" type="line"/>
      <point x="567" y="83" type="line"/>
      <point x="167" y="83" type="line"/>
      <point x="167" y="317" type="line"/>
      <point x="510" y="317" type="line"/>
      <point x="510" y="400" type="line"/>
      <point x="167" y="400" type="line"/>
      <point x="167" y="624" type="line"/>
      <point x="567" y="624" type="line"/>
      <point x="567" y="707" type="line"/>
      <point x="74" y="707" type="line"/>
    </contour>
  </outline>
</glyph>
<glyph name="F" format="2">
  <advance width="604"/>
  <unicode hex="0046"/>
  <anchor x="326" y="760" name="top"/>
  <anchor x="236" y="-86" name="bottom"/>
  <outline>
    <contour>
      <point x="146.64" y="314" type="line"/>
      <point x="511" y="314" type="line"/>
      <point x="511" y="397" type="line"/>
      <point x="146.64" y="397" type="line"/>
    </contour>
    <contour>
      <point x="146.82" y="624" type="line"/>
      <point x="567" y="624" type="line"/>
      <point x="567" y="707" type="line"/>
      <point x="146.82" y="707" type="line"/>
    </contour>
    <contour>
      <point x="74" y="0" type="line"/>
      <point x="167" y="0" type="line"/>
      <point x="167" y="707.09" type="line"/>
      <point x="74" y="707" type="line"/>
    </contour>
  </outline>
</glyph>
<glyph name="H" format="2">
  <advance width="702"/>
  <unicode hex="0048"/>
  <anchor x="351" y="760" name="top"/>
  <anchor x="351" y="-86" name="bottom"/>
  <outline>
    <contour>
      <point x="146.64" y="319" type="line"/>
      <point x="556.36" y="319" type="line"/>
      <point x="556.36" y="401" type="line"/>
      <point x="146.64" y="401" type="line"/>
    </contour>
    <contour>
      <point x="536" y="0" type="line"/>
      <point x="628" y="0" type="line"/>
      <point x="628" y="707" type="line"/>
      <point x="536" y="707" type="line"/>
    </contour>
    <contour>
      <point x="74" y="0" type="line"/>
      <point x="167" y="0" type="line"/>
      <point x="167" y="707" type="line"/>
      <point x="74" y="707" type="line"/>
    </contour>
  </outline>
</glyph>
<glyph name="J" format="2">
  <advance width="353"/>
  <unicode hex="004A"/>
  <anchor x="226" y="760" name="top"/>
  <anchor x="236" y="-86" name="bottom"/>
  <outline>
    <contour>
      <point x="30" y="0" type="line"/>
      <point x="112" y="0" type="line" smooth="yes"/>
      <point x="219.669" y="0"/>
      <point x="272" y="52.004"/>
      <point x="272" y="159" type="curve" smooth="yes"/>
      <point x="272" y="707" type="line"/>
      <point x="179" y="707" type="line"/>
      <point x="179" y="171" type="line" smooth="yes"/>
      <point x="179" y="106.938"/>
      <point x="155.606" y="83"/>
      <point x="93" y="83" type="curve" smooth="yes"/>
      <point x="30" y="83" type="line"/>
    </contour>
  </outline>
</glyph>
<glyph name="K" format="2">
  <advance width="687"/>
  <unicode hex="004B"/>
  <anchor x="316" y="760" name="top"/>
  <anchor x="316" y="-86" name="bottom"/>
  <outline>
    <contour>
      <point x="74" y="0" type="line"/>
      <point x="167" y="0" type="line"/>
      <point x="167" y="194" type="line"/>
      <point x="327" y="364" type="line"/>
      <point x="568" y="0" type="line"/>
      <point x="680" y="0" type="line"/>
      <point x="388" y="429" type="line"/>
      <point x="647" y="707" type="line"/>
      <point x="530" y="707" type="line"/>
      <point x="167" y="311" type="line"/>
      <point x="167" y="707" type="line"/>
      <point x="74" y="707" type="line"/>
    </contour>
  </outline>
</glyph>
<glyph name="L" format="2">
  <advance width="592"/>
  <unicode hex="004C"/>
  <anchor x="121" y="760" name="top"/>
  <anchor x="315" y="-86" name="bottom"/>
  <anchor x="419" y="397" name="dot"/>
  <outline>
    <contour>
      <point x="74" y="0" type="line"/>
      <point x="563" y="0" type="line"/>
      <point x="563" y="83" type="line"/>
      <point x="167" y="83" type="line"/>
      <point x="167" y="707" type="line"/>
      <point x="74" y="707" type="line"/>
    </contour>
  </outline>
</glyph>
<glyph name="M" format="2">
  <advance width="846"/>
  <unicode hex="004D"/>
  <anchor x="424" y="760" name="top"/>
  <anchor x="236" y="-86" name="bottom"/>
  <outline>
    <contour>
      <point x="74" y="0" type="line"/>
      <point x="167" y="0" type="line"/>
      <point x="167" y="535" type="line"/>
      <point x="391" y="140" type="line"/>
      <point x="457" y="140" type="line"/>
      <point x="681" y="535" type="line"/>
      <point x="681" y="0" type="line"/>
      <point x="773" y="0" type="line"/>
      <point x="773" y="707" type="line"/>
      <point x="681" y="707" type="line"/>
      <point x="424" y="248" type="line"/>
      <point x="167" y="707" type="line"/>
      <point x="74" y="707" type="line"/>
    </contour>
  </outline>
</glyph>
<glyph name="N" format="2">
  <advance width="739"/>
  <unicode hex="004E"/>
  <anchor x="362" y="760" name="top"/>
  <anchor x="362" y="-86" name="bottom"/>
  <outline>
    <contour>
      <point x="74" y="0" type="line"/>
      <point x="167" y="0" type="line"/>
      <point x="167" y="547" type="line"/>
      <point x="571" y="0" type="line"/>
      <point x="665" y="0" type="line"/>
      <point x="665" y="707" type="line"/>
      <point x="571" y="707" type="line"/>
      <point x="571" y="159" type="line"/>
      <point x="167" y="707" type="line"/>
      <point x="74" y="707" type="line"/>
    </contour>
  </outline>
</glyph>
<glyph name="P" format="2">
  <advance width="652"/>
  <unicode hex="0050"/>
  <anchor x="315" y="760" name="top"/>
  <anchor x="236" y="-86" name="bottom"/>
  <outline>
    <contour>
      <point x="74" y="0" type="line"/>
      <point x="167" y="0" type="line"/>
      <point x="167" y="284" type="line"/>
      <point x="380" y="284" type="line" smooth="yes"/>
      <point x="537.646" y="284"/>
      <point x="623" y="358.114"/>
      <point x="623" y="495" type="curve" smooth="yes"/>
      <point x="623" y="633.006"/>
      <point x="538.186" y="707"/>
      <point x="380" y="707" type="curve" smooth="yes"/>
      <point x="74" y="707" type="line"/>
    </contour>
    <contour>
      <point x="167" y="367" type="line"/>
      <point x="167" y="624" type="line"/>
      <point x="376" y="624" type="line" smooth="yes"/>
      <point x="484.256" y="624"/>
      <point x="529" y="585.983"/>
      <point x="529" y="494" type="curve" smooth="yes"/>
      <point x="529" y="405.635"/>
      <point x="484.281" y="367"/>
      <point x="382" y="367" type="curve" smooth="yes"/>
    </contour>
  </outline>
</glyph>
<glyph name="Q" format="2">
  <advance width="711"/>
  <unicode hex="0051"/>
  <anchor x="355" y="760" name="top"/>
  <anchor x="236" y="-86" name="bottom"/>
  <outline>
    <contour>
      <point x="355" y="-9" type="curve" smooth="yes"/>
      <point x="546.983" y="-9"/>
      <point x="651.024" y="99.184"/>
      <point x="651.009" y="298.795" type="curve" smooth="yes"/>
      <point x="651" y="406" type="line" smooth="yes"/>
      <point x="650.984" y="607.742"/>
      <point x="548.05" y="717"/>
      <point x="358" y="717" type="curve" smooth="yes"/>
      <point x="165.651" y="717"/>
      <point x="62" y="608.097"/>
      <point x="62" y="406" type="curve" smooth="yes"/>
      <point x="62" y="302" type="line" smooth="yes"/>
      <point x="62" y="99.6"/>
      <point x="164.314" y="-9"/>
    </contour>
    <contour>
      <point x="357" y="75" type="curve" smooth="yes"/>
      <point x="220.221" y="75"/>
      <point x="156" y="147.209"/>
      <point x="156" y="301" type="curve" smooth="yes"/>
      <point x="156" y="400" type="line" smooth="yes"/>
      <point x="156" y="558.826"/>
      <point x="219.987" y="633"/>
      <point x="357" y="633" type="curve" smooth="yes"/>
      <point x="494.356" y="633"/>
      <point x="559" y="558.436"/>
      <point x="559" y="400" type="curve" smooth="yes"/>
      <point x="559" y="301" type="line" smooth="yes"/>
      <point x="559" y="148.333"/>
      <point x="493.454" y="75"/>
    </contour>
    <contour>
      <point x="545" y="-155" type="line"/>
      <point x="617" y="-116" type="line"/>
      <point x="528.85" y="51.594" type="line"/>
      <point x="452.758" y="17.546" type="line"/>
    </contour>
  </outline>
</glyph>
<glyph name="R" format="2">
  <advance width="680"/>
  <unicode hex="0052"/>
  <anchor x="311" y="760" name="top"/>
  <anchor x="311" y="-86" name="bottom"/>
  <outline>
    <contour>
      <point x="74" y="0" type="line"/>
      <point x="167" y="0" type="line"/>
      <point x="167" y="301" type="line"/>
      <point x="372" y="301" type="line"/>
      <point x="537" y="0" type="line"/>
      <point x="643" y="0" type="line"/>
      <point x="468" y="310" type="line"/>
      <point x="569.253" y="333.981"/>
      <point x="623" y="401.252"/>
      <point x="623" y="504" type="curve" smooth="yes"/>
      <point x="623" y="635.035"/>
      <point x="537.563" y="707"/>
      <point x="382" y="707" type="curve" smooth="yes"/>
      <point x="74" y="707" type="line"/>
    </contour>
    <contour>
      <point x="167" y="382" type="line"/>
      <point x="167" y="624" type="line"/>
      <point x="378" y="624" type="line" smooth="yes"/>
      <point x="480.506" y="624"/>
      <point x="529" y="585.461"/>
      <point x="529" y="504" type="curve" smooth="yes"/>
      <point x="529" y="419.931"/>
      <point x="483.918" y="382"/>
      <point x="384" y="382" type="curve" smooth="yes"/>
    </contour>
  </outline>
</glyph>
<glyph name="S" format="2">
  <advance width="625"/>
  <unicode hex="0053"/>
  <anchor x="305" y="760" name="top"/>
  <anchor x="273" y="0" name="b.cedilla"/>
  <anchor x="305" y="-86" name="bottom"/>
  <outline>
    <contour>
      <point x="32" y="204" type="line"/>
      <point x="41.29" y="65.982"/>
      <point x="134.867" y="-6"/>
      <point x="305" y="-6" type="curve" smooth="yes"/>
      <point x="480.862" y="-6"/>
      <point x="584" y="70.891"/>
      <point x="584" y="202" type="curve" smooth="yes"/>
      <point x="584" y="312.667"/>
      <point x="514.333" y="377.333"/>
      <point x="375" y="396" type="curve"/>
      <point x="275" y="408" type="line" smooth="yes"/>
      <point x="181.935" y="419.168"/>
      <point x="138" y="455.406"/>
      <point x="138" y="521" type="curve" smooth="yes"/>
      <point x="138" y="597.212"/>
      <point x="196.31" y="637"/>
      <point x="308" y="637" type="curve" smooth="yes"/>
      <point x="417.333" y="637"/>
      <point x="473.251" y="597.337"/>
      <point x="480" y="515" type="curve"/>
      <point x="570" y="515" type="line"/>
      <point x="556.725" y="646.421"/>
      <point x="466.03" y="716"/>
      <point x="308" y="716" type="curve" smooth="yes"/>
      <point x="145.41" y="716"/>
      <point x="48" y="640.695"/>
      <point x="48" y="515" type="curve" smooth="yes"/>
      <point x="48" y="406.341"/>
      <point x="116.659" y="343.348"/>
      <point x="254" y="326" type="curve" smooth="yes"/>
      <point x="349" y="314" type="line"/>
      <point x="447.043" y="303.256"/>
      <point x="492" y="266.159"/>
      <point x="492" y="196" type="curve"/>
      <point x="491.333" y="114.667"/>
      <point x="430.333" y="74"/>
      <point x="309" y="74" type="curve" smooth="yes"/>
      <point x="188.164" y="74"/>
      <point x="129.775" y="114.592"/>
      <point x="122" y="204" type="curve"/>
    </contour>
  </outline>
</glyph>
<glyph name="T" format="2">
  <advance width="563"/>
  <unicode hex="0054"/>
  <anchor x="282" y="-86" name="bottom"/>
  <anchor x="281" y="760" name="top"/>
  <anchor x="243" y="0" name="b.cedilla"/>
  <outline>
    <contour>
      <point x="236" y="0" type="line"/>
      <point x="328" y="0" type="line"/>
      <point x="328" y="624" type="line"/>
      <point x="556" y="624" type="line"/>
      <point x="556" y="707" type="line"/>
      <point x="7" y="707" type="line"/>
      <point x="7" y="624" type="line"/>
      <point x="236" y="624" type="line"/>
    </contour>
  </outline>
</glyph>
<glyph name="U" format="2">
  <advance width="708"/>
  <unicode hex="0055"/>
  <anchor x="354" y="760" name="top"/>
  <anchor x="354" y="-86" name="bottom"/>
  <anchor x="408" y="0" name="b.cedilla"/>
  <outline>
    <contour>
      <point x="74" y="707" type="line"/>
      <point x="74" y="253" type="line" smooth="yes"/>
      <point x="74" y="89.399"/>
      <point x="177.135" y="-6"/>
      <point x="354" y="-6" type="curve" smooth="yes"/>
      <point x="530.965" y="-6"/>
      <point x="635" y="89.89"/>
      <point x="635" y="253" type="curve" smooth="yes"/>
      <point x="635" y="707" type="line"/>
      <point x="541" y="707" type="line"/>
      <point x="541" y="259" type="line" smooth="yes"/>
      <point x="541" y="136.998"/>
      <point x="478.667" y="76"/>
      <point x="354" y="76" type="curve" smooth="yes"/>
      <point x="229.333" y="76"/>
      <point x="168" y="137"/>
      <point x="168" y="259" type="curve" smooth="yes"/>
      <point x="168" y="707" type="line"/>
    </contour>
  </outline>
</glyph>
<glyph name="V" format="2">
  <advance width="619"/>
  <unicode hex="0056"/>
  <anchor x="311" y="760" name="top"/>
  <anchor x="311" y="-86" name="bottom"/>
  <outline>
    <contour>
      <point x="272" y="0" type="line"/>
      <point x="350" y="0" type="line"/>
      <point x="613" y="707" type="line"/>
      <point x="516" y="707" type="line"/>
      <point x="311" y="126" type="line"/>
      <point x="103" y="707" type="line"/>
      <point x="6" y="707" type="line"/>
    </contour>
  </outline>
</glyph>
<glyph name="asciicircum" format="2">
  <advance width="521"/>
  <unicode hex="005E"/>
  <outline>
    <contour>
      <point x="50" y="288" type="line"/>
      <point x="125" y="288" type="line"/>
      <point x="260" y="624" type="line"/>
      <point x="396" y="288" type="line"/>
      <point x="471" y="288" type="line"/>
      <point x="298" y="709" type="line"/>
      <point x="223" y="709" type="line"/>
    </contour>
  </outline>
</glyph>
<glyph name="underscore" format="2">
  <advance width="549"/>
  <unicode hex="005F"/>
  <outline>
    <contour>
      <point x="0" y="-112" type="line"/>
      <point x="550" y="-112" type="line"/>
      <point x="550" y="-51" type="line"/>
      <point x="0" y="-51" type="line"/>
    </contour>
  </outline>
</glyph>
<glyph name="grave" format="2">
  <advance width="512"/>
  <unicode hex="0060"/>
  <outline>
    <contour>
      <point x="99" y="717" type="line"/>
      <point x="247" y="586" type="line"/>
      <point x="331" y="586" type="line"/>
      <point x="213" y="717" type="line"/>
    </contour>
  </outline>
</glyph>
<glyph name="c" format="2">
  <advance width="566"/>
  <unicode hex="0063"/>
  <anchor x="293" y="586" name="top"/>
  <anchor x="258" y="0" name="b.cedilla"/>
  <anchor x="236" y="-86" name="bottom"/>
  <outline>
    <contour>
      <point x="428" y="183" type="line"/>
      <point x="428" y="179" type="line" smooth="yes"/>
      <point x="428" y="108.438"/>
      <point x="379.183" y="68"/>
      <point x="294" y="68" type="curve" smooth="yes"/>
      <point x="191.333" y="68"/>
      <point x="140" y="125"/>
      <point x="140" y="239" type="curve" smooth="yes"/>
      <point x="140" y="287" type="line" smooth="yes"/>
      <point x="140" y="400.333"/>
      <point x="191.333" y="457"/>
      <point x="294" y="457" type="curve" smooth="yes"/>
      <point x="378.566" y="457"/>
      <point x="428" y="415.313"/>
      <point x="428" y="344" type="curve" smooth="yes"/>
      <point x="428" y="339" type="line"/>
      <point x="513" y="339" type="line"/>
      <point x="513" y="344" type="line" smooth="yes"/>
      <point x="513" y="462.948"/>
      <point x="430.009" y="535"/>
      <point x="293" y="535" type="curve" smooth="yes"/>
      <point x="139.618" y="535"/>
      <point x="53" y="446.217"/>
      <point x="53" y="289" type="curve" smooth="yes"/>
      <point x="53" y="237" type="line" smooth="yes"/>
      <point x="53" y="79.656"/>
      <point x="139.854" y="-9"/>
      <point x="294" y="-9" type="curve" smooth="yes"/>
      <point x="430.23" y="-9"/>
      <point x="513" y="62.053"/>
      <point x="513" y="179" type="curve" smooth="yes"/>
      <point x="513" y="183" type="line"/>
    </contour>
  </outline>
</glyph>
<glyph name="d" format="2">
  <advance width="593"/>
  <unicode hex="0064"/>
  <anchor x="270" y="590" name="top"/>
  <anchor x="290" y="-86" name="bottom"/>
  <outline>
    <contour>
      <point x="438" y="0" type="line"/>
      <point x="524" y="0" type="line"/>
      <point x="524" y="707" type="line"/>
      <point x="438" y="707" type="line"/>
      <point x="438" y="455" type="line"/>
      <point x="404.239" y="504.966"/>
      <point x="340.417" y="535"/>
      <point x="268" y="535" type="curve" smooth="yes"/>
      <point x="134.599" y="535"/>
      <point x="53" y="442.395"/>
      <point x="53" y="291" type="curve" smooth="yes"/>
      <point x="53" y="234" type="line" smooth="yes"/>
      <point x="53" y="81.803"/>
      <point x="134.087" y="-9"/>
      <point x="270" y="-9" type="curve" smooth="yes"/>
      <point x="345.231" y="-9"/>
      <point x="402.975" y="17.81"/>
      <point x="438" y="69" type="curve"/>
    </contour>
    <contour>
      <point x="287" y="68" type="curve" smooth="yes"/>
      <point x="191.047" y="68"/>
      <point x="140" y="127.381"/>
      <point x="140" y="239" type="curve" smooth="yes"/>
      <point x="140" y="286" type="line" smooth="yes"/>
      <point x="140" y="397.991"/>
      <point x="190.382" y="457"/>
      <point x="286" y="457" type="curve" smooth="yes"/>
      <point x="380.538" y="457"/>
      <point x="438" y="396.136"/>
      <point x="438" y="296" type="curve" smooth="yes"/>
      <point x="438" y="227" type="line" smooth="yes"/>
      <point x="438" y="128.264"/>
      <point x="380.769" y="68"/>
    </contour>
  </outline>
</glyph>
<glyph name="f" format="2">
  <advance width="372"/>
  <unicode hex="0066"/>
  <anchor x="182" y="760" name="top"/>
  <anchor x="236" y="-86" name="bottom"/>
  <outline>
    <contour>
      <point x="120" y="0" type="line"/>
      <point x="207" y="0" type="line"/>
      <point x="207" y="459" type="line"/>
      <point x="338" y="459" type="line"/>
      <point x="338" y="524" type="line"/>
      <point x="207" y="524" type="line"/>
      <point x="207" y="564" type="line" smooth="yes"/>
      <point x="207" y="617.326"/>
      <point x="233.256" y="642"/>
      <point x="290" y="642" type="curve" smooth="yes"/>
      <point x="338" y="642" type="line"/>
      <point x="338" y="707" type="line"/>
      <point x="275" y="707" type="line" smooth="yes"/>
      <point x="174.749" y="707"/>
      <point x="120" y="655.43"/>
      <point x="120" y="561" type="curve" smooth="yes"/>
      <point x="120" y="524" type="line"/>
      <point x="46" y="524" type="line"/>
      <point x="46" y="459" type="line"/>
      <point x="120" y="459" type="line"/>
    </contour>
  </outline>
</glyph>
<glyph name="i" format="2">
  <advance width="239"/>
  <unicode hex="0069"/>
  <anchor x="163" y="0" name="b.cedilla"/>
  <anchor x="119" y="-86" name="bottom"/>
  <outline>
    <contour>
      <point x="76" y="0" type="line"/>
      <point x="163" y="0" type="line"/>
      <point x="163" y="524" type="line"/>
      <point x="76" y="524" type="line"/>
    </contour>
    <contour>
      <point x="76" y="611" type="line"/>
      <point x="163" y="611" type="line"/>
      <point x="163" y="706" type="line"/>
      <point x="76" y="706" type="line"/>
    </contour>
  </outline>
</glyph>
<glyph name="j" format="2">
  <advance width="237"/>
  <unicode hex="006A"/>
  <outline>
    <contour>
      <point x="73" y="611" type="line"/>
      <point x="161" y="611" type="line"/>
      <point x="161" y="707" type="line"/>
      <point x="73" y="707" type="line"/>
    </contour>
    <contour>
      <point x="-55" y="-157" type="line"/>
      <point x="1" y="-157" type="line" smooth="yes"/>
      <point x="107.658" y="-157"/>
      <point x="162" y="-104.008"/>
      <point x="162" y="0" type="curve" smooth="yes"/>
      <point x="162" y="524" type="line"/>
      <point x="75" y="524" type="line"/>
      <point x="75" y="6" type="line" smooth="yes"/>
      <point x="75" y="-55.024"/>
      <point x="51.306" y="-79"/>
      <point x="-9" y="-79" type="curve" smooth="yes"/>
      <point x="-55" y="-79" type="line"/>
    </contour>
  </outline>
</glyph>
<glyph name="l" format="2">
  <advance width="298"/>
  <unicode hex="006C"/>
  <anchor x="113" y="760" name="top"/>
  <anchor x="179" y="-86" name="bottom"/>
  <anchor x="281" y="397" name="dot"/>
  <outline>
    <contour>
      <point x="286" y="0" type="line"/>
      <point x="286" y="78" type="line"/>
      <point x="241" y="78" type="line" smooth="yes"/>
      <point x="179" y="78"/>
      <point x="156" y="101"/>
      <point x="156" y="163" type="curve" smooth="yes"/>
      <point x="156" y="707" type="line"/>
      <point x="69" y="707" type="line"/>
      <point x="69" y="158" type="line" smooth="yes"/>
      <point x="69" y="50.731"/>
      <point x="120.373" y="0"/>
      <point x="229" y="0" type="curve" smooth="yes"/>
    </contour>
  </outline>
</glyph>
<glyph name="m" format="2">
  <advance width="933"/>
  <unicode hex="006D"/>
  <anchor x="467" y="586" name="top"/>
  <anchor x="236" y="-86" name="bottom"/>
  <outline>
    <contour>
      <point x="69" y="0" type="line"/>
      <point x="156" y="0" type="line"/>
      <point x="156" y="307" type="line" smooth="yes"/>
      <point x="156" y="396.944"/>
      <point x="211.288" y="453"/>
      <point x="300" y="453" type="curve" smooth="yes"/>
      <point x="379.055" y="453"/>
      <point x="423" y="405.125"/>
      <point x="423" y="319" type="curve" smooth="yes"/>
      <point x="423" y="0" type="line"/>
      <point x="511" y="0" type="line"/>
      <point x="511" y="316" type="line" smooth="yes"/>
      <point x="511" y="404.343"/>
      <point x="560.012" y="453"/>
      <point x="649" y="453" type="curve" smooth="yes"/>
      <point x="733.351" y="453"/>
      <point x="777" y="406.964"/>
      <point x="777" y="318" type="curve" smooth="yes"/>
      <point x="777" y="0" type="line"/>
      <point x="864" y="0" type="line"/>
      <point x="864" y="330" type="line" smooth="yes"/>
      <point x="864" y="457.306"/>
      <point x="792.033" y="530"/>
      <point x="666" y="530" type="curve" smooth="yes"/>
      <point x="583.873" y="530"/>
      <point x="526.291" y="503.713"/>
      <point x="482" y="446" type="curve"/>
      <point x="449.899" y="499.502"/>
      <point x="391.444" y="530"/>
      <point x="321" y="530" type="curve" smooth="yes"/>
      <point x="249" y="530"/>
      <point x="191.655" y="503.745"/>
      <point x="155" y="454" type="curve"/>
      <point x="155" y="524" type="line"/>
      <point x="69" y="524" type="line"/>
    </contour>
  </outline>
</glyph>
<glyph name="o" format="2">
  <advance width="585"/>
  <unicode hex="006F"/>
  <anchor x="293" y="586" name="top"/>
  <anchor x="293" y="-86" name="bottom"/>
  <anchor x="237" y="0" name="b.cedilla"/>
  <outline>
    <contour>
      <point x="294" y="-9" type="curve" smooth="yes"/>
      <point x="446.065" y="-9"/>
      <point x="532" y="79.824"/>
      <point x="532" y="237" type="curve" smooth="yes"/>
      <point x="532" y="289" type="line" smooth="yes"/>
      <point x="532" y="445.51"/>
      <point x="445.42" y="535"/>
      <point x="294" y="535" type="curve" smooth="yes"/>
      <point x="140.293" y="535"/>
      <point x="53" y="445.896"/>
      <point x="53" y="289" type="curve" smooth="yes"/>
      <point x="53" y="237" type="line" smooth="yes"/>
      <point x="53" y="79.868"/>
      <point x="140.062" y="-9"/>
    </contour>
    <contour>
      <point x="293" y="68" type="curve" smooth="yes"/>
      <point x="191" y="68"/>
      <point x="140" y="125"/>
      <point x="140" y="239" type="curve" smooth="yes"/>
      <point x="140" y="287" type="line" smooth="yes"/>
      <point x="140" y="400.333"/>
      <point x="191" y="457"/>
      <point x="293" y="457" type="curve" smooth="yes"/>
      <point x="394.333" y="457"/>
      <point x="445" y="400.333"/>
      <point x="445" y="287" type="curve" smooth="yes"/>
      <point x="445" y="239" type="line" smooth="yes"/>
      <point x="445" y="125"/>
      <point x="394.333" y="68"/>
    </contour>
  </outline>
</glyph>
<glyph name="p" format="2">
  <advance width="593"/>
  <unicode hex="0070"/>
  <anchor x="309" y="586" name="top"/>
  <anchor x="236" y="-86" name="bottom"/>
  <outline>
    <contour>
      <point x="69" y="-166" type="line"/>
      <point x="156" y="-166" type="line"/>
      <point x="156" y="68" type="line"/>
      <point x="191" y="17"/>
      <point x="247" y="-9"/>
      <point x="322" y="-9" type="curve" smooth="yes"/>
      <point x="458" y="-9"/>
      <point x="541" y="83"/>
      <point x="541" y="236" type="curve" smooth="yes"/>
      <point x="541" y="291" type="line" smooth="yes"/>
      <point x="541" y="442"/>
      <point x="458" y="534"/>
      <point x="322" y="534" type="curve" smooth="yes"/>
      <point x="250" y="534"/>
      <point x="192" y="506"/>
      <point x="155" y="454" type="curve"/>
      <point x="155" y="524" type="line"/>
      <point x="69" y="524" type="line"/>
    </contour>
    <contour>
      <point x="309" y="68" type="curve" smooth="yes"/>
      <point x="215" y="68"/>
      <point x="156" y="129"/>
      <point x="156" y="227" type="curve" smooth="yes"/>
      <point x="156" y="296" type="line" smooth="yes"/>
      <point x="156" y="396"/>
      <point x="213" y="457"/>
      <point x="307" y="457" type="curve" smooth="yes"/>
      <point x="404" y="457"/>
      <point x="454" y="398"/>
      <point x="454" y="286" type="curve" smooth="yes"/>
      <point x="454" y="240" type="line" smooth="yes"/>
      <point x="454" y="128"/>
      <point x="403" y="68"/>
    </contour>
  </outline>
</glyph>
<glyph name="r" format="2">
  <advance width="387"/>
  <unicode hex="0072"/>
  <anchor x="204" y="586" name="top"/>
  <anchor x="204" y="-86" name="bottom"/>
  <outline>
    <contour>
      <point x="69" y="0" type="line"/>
      <point x="156" y="0" type="line"/>
      <point x="156" y="302" type="line" smooth="yes"/>
      <point x="156" y="395.333"/>
      <point x="215.333" y="454"/>
      <point x="306" y="454" type="curve" smooth="yes"/>
      <point x="326.011" y="454"/>
      <point x="345.333" y="450.333"/>
      <point x="364" y="445" type="curve"/>
      <point x="364" y="528" type="line"/>
      <point x="351.333" y="530"/>
      <point x="337.333" y="531"/>
      <point x="322" y="531" type="curve" smooth="yes"/>
      <point x="248.667" y="531"/>
      <point x="191" y="505.667"/>
      <point x="155" y="451" type="curve"/>
      <point x="155" y="524" type="line"/>
      <point x="69" y="524" type="line"/>
    </contour>
  </outline>
</glyph>
<glyph name="s" format="2">
  <advance width="529"/>
  <unicode hex="0073"/>
  <anchor x="264" y="586" name="top"/>
  <anchor x="231" y="0" name="b.cedilla"/>
  <anchor x="264" y="-86" name="bottom"/>
  <outline>
    <contour>
      <point x="43" y="160" type="line"/>
      <point x="43" y="157" type="line" smooth="yes"/>
      <point x="43" y="57.013"/>
      <point x="128.434" y="-6"/>
      <point x="264" y="-6" type="curve" smooth="yes"/>
      <point x="406.914" y="-6"/>
      <point x="492" y="54.456"/>
      <point x="492" y="156" type="curve" smooth="yes"/>
      <point x="492" y="239.548"/>
      <point x="435.791" y="284.09"/>
      <point x="318" y="299" type="curve" smooth="yes"/>
      <point x="239" y="309" type="line" smooth="yes"/>
      <point x="163.357" y="318.575"/>
      <point x="134" y="337.117"/>
      <point x="134" y="382" type="curve" smooth="yes"/>
      <point x="134" y="433.868"/>
      <point x="178.992" y="461"/>
      <point x="265" y="461" type="curve" smooth="yes"/>
      <point x="352.287" y="461"/>
      <point x="400" y="430.605"/>
      <point x="400" y="375" type="curve" smooth="yes"/>
      <point x="400" y="372" type="line"/>
      <point x="483" y="372" type="line"/>
      <point x="483" y="376" type="line" smooth="yes"/>
      <point x="483" y="471.461"/>
      <point x="398.877" y="531"/>
      <point x="264" y="531" type="curve" smooth="yes"/>
      <point x="131.789" y="531"/>
      <point x="51" y="472.21"/>
      <point x="51" y="376" type="curve" smooth="yes"/>
      <point x="51" y="292.25"/>
      <point x="103.719" y="247.954"/>
      <point x="220" y="234" type="curve" smooth="yes"/>
      <point x="295" y="225" type="line" smooth="yes"/>
      <point x="375.577" y="215.331"/>
      <point x="409" y="195.199"/>
      <point x="409" y="151" type="curve" smooth="yes"/>
      <point x="409" y="97.454"/>
      <point x="357.881" y="67"/>
      <point x="268" y="67" type="curve" smooth="yes"/>
      <point x="176.308" y="67"/>
      <point x="126" y="98.239"/>
      <point x="126" y="157" type="curve" smooth="yes"/>
      <point x="126" y="160" type="line"/>
    </contour>
  </outline>
</glyph>
<glyph name="t" format="2">
  <advance width="392"/>
  <unicode hex="0074"/>
  <anchor x="211" y="-86" name="bottom"/>
  <anchor x="168" y="760" name="top"/>
  <outline>
    <contour>
      <point x="339" y="0" type="line"/>
      <point x="339" y="76" type="line"/>
      <point x="295" y="76" type="line" smooth="yes"/>
      <point x="234.9" y="76"/>
      <point x="211" y="98.762"/>
      <point x="211" y="156" type="curve" smooth="yes"/>
      <point x="211" y="459" type="line"/>
      <point x="350" y="459" type="line"/>
      <point x="350" y="524" type="line"/>
      <point x="211" y="524" type="line"/>
      <point x="211" y="674" type="line"/>
      <point x="124" y="638" type="line"/>
      <point x="124" y="524" type="line"/>
      <point x="32" y="524" type="line"/>
      <point x="32" y="459" type="line"/>
      <point x="124" y="459" type="line"/>
      <point x="124" y="151" type="line" smooth="yes"/>
      <point x="124" y="50.333"/>
      <point x="176.333" y="0"/>
      <point x="281" y="0" type="curve" smooth="yes"/>
    </contour>
  </outline>
</glyph>
<glyph name="v" format="2">
  <advance width="525"/>
  <unicode hex="0076"/>
  <anchor x="263" y="586" name="top"/>
  <anchor x="263" y="-86" name="bottom"/>
  <outline>
    <contour>
      <point x="220" y="0" type="line"/>
      <point x="305" y="0" type="line"/>
      <point x="512" y="524" type="line"/>
      <point x="419" y="524" type="line"/>
      <point x="263" y="109" type="line"/>
      <point x="106" y="524" type="line"/>
      <point x="13" y="524" type="line"/>
    </contour>
  </outline>
</glyph>
<glyph name="w" format="2">
  <advance width="839"/>
  <unicode hex="0077"/>
  <anchor x="419" y="586" name="top"/>
  <anchor x="421" y="-86" name="bottom"/>
  <anchor x="419" y="578" name="t.ring"/>
  <outline>
    <contour>
      <point x="194" y="0" type="line"/>
      <point x="279" y="0" type="line"/>
      <point x="419" y="399" type="line"/>
      <point x="559" y="0" type="line"/>
      <point x="645" y="0" type="line"/>
      <point x="826" y="524" type="line"/>
      <point x="733" y="524" type="line"/>
      <point x="600" y="111" type="line"/>
      <point x="455" y="524" type="line"/>
      <point x="384" y="524" type="line"/>
      <point x="240" y="111" type="line"/>
      <point x="106" y="524" type="line"/>
      <point x="13" y="524" type="line"/>
    </contour>
  </outline>
</glyph>
<glyph name="x" format="2">
  <advance width="499"/>
  <unicode hex="0078"/>
  <anchor x="249" y="586" name="top"/>
  <anchor x="236" y="-86" name="bottom"/>
  <outline>
    <contour>
      <point x="13" y="0" type="line"/>
      <point x="106" y="0" type="line"/>
      <point x="249" y="204" type="line"/>
      <point x="393" y="0" type="line"/>
      <point x="486" y="0" type="line"/>
      <point x="294" y="271" type="line"/>
      <point x="474" y="524" type="line"/>
      <point x="381" y="524" type="line"/>
      <point x="249" y="336" type="line"/>
      <point x="116" y="524" type="line"/>
      <point x="23" y="524" type="line"/>
      <point x="203" y="268" type="line"/>
    </contour>
  </outline>
</glyph>
<glyph name="z" format="2">
  <advance width="512"/>
  <unicode hex="007A"/>
  <anchor x="246" y="586" name="top"/>
  <anchor x="247" y="-86" name="bottom"/>
  <outline>
    <contour>
      <point x="53" y="0" type="line"/>
      <point x="459" y="0" type="line"/>
      <point x="459" y="77" type="line"/>
      <point x="154" y="77" type="line"/>
      <point x="459" y="446" type="line"/>
      <point x="459" y="524" type="line"/>
      <point x="53" y="524" type="line"/>
      <point x="53" y="446" type="line"/>
      <point x="356" y="446" type="line"/>
      <point x="53" y="77" type="line"/>
    </contour>
  </outline>
</glyph>
<glyph name="braceleft" format="2">
  <advance width="370"/>
  <unicode hex="007B"/>
  <outline>
    <contour>
      <point x="325" y="-86" type="line"/>
      <point x="325" y="-11" type="line"/>
      <point x="274" y="-11" type="line" smooth="yes"/>
      <point x="237.692" y="-11"/>
      <point x="223" y="3.98"/>
      <point x="223" y="41" type="curve" smooth="yes"/>
      <point x="223" y="214" type="line" smooth="yes"/>
      <point x="223" y="289.833"/>
      <point x="207.106" y="320.628"/>
      <point x="159" y="338" type="curve"/>
      <point x="206.869" y="355.286"/>
      <point x="223" y="386.792"/>
      <point x="223" y="463" type="curve" smooth="yes"/>
      <point x="223" y="631" type="line" smooth="yes"/>
      <point x="223" y="667.353"/>
      <point x="238.346" y="683"/>
      <point x="274" y="683" type="curve" smooth="yes"/>
      <point x="325" y="683" type="line"/>
      <point x="325" y="758" type="line"/>
      <point x="250" y="758" type="line" smooth="yes"/>
      <point x="173.333" y="758"/>
      <point x="135" y="718.667"/>
      <point x="135" y="640" type="curve" smooth="yes"/>
      <point x="135" y="460" type="line" smooth="yes"/>
      <point x="135" y="400.356"/>
      <point x="111.916" y="378"/>
      <point x="45" y="378" type="curve"/>
      <point x="45" y="299" type="line"/>
      <point x="112.25" y="299"/>
      <point x="135" y="276.689"/>
      <point x="135" y="216" type="curve" smooth="yes"/>
      <point x="135" y="32" type="line" smooth="yes"/>
      <point x="135" y="-46.667"/>
      <point x="173.333" y="-86"/>
      <point x="250" y="-86" type="curve" smooth="yes"/>
    </contour>
  </outline>
</glyph>
<glyph name="cent" format="2">
  <advance width="566"/>
  <unicode hex="00A2"/>
  <outline>
    <contour>
      <point x="261" y="-102" type="line"/>
      <point x="324" y="-102" type="line"/>
      <point x="324" y="-8" type="line"/>
      <point x="443.234" y="1.274"/>
      <point x="513" y="70.302"/>
      <point x="513" y="179" type="curve" smooth="yes"/>
      <point x="513" y="183" type="line"/>
      <point x="428" y="183" type="line"/>
      <point x="428" y="179" type="line" smooth="yes"/>
      <point x="428" y="108.694"/>
      <point x="377.83" y="67.393"/>
      <point x="292.426" y="67.393" type="curve" smooth="yes"/>
      <point x="192.037" y="67.393"/>
      <point x="140" y="125.978"/>
      <point x="140" y="239" type="curve" smooth="yes"/>
      <point x="140" y="287" type="line" smooth="yes"/>
      <point x="140" y="399.315"/>
      <point x="192.11" y="457.619"/>
      <point x="292.493" y="457.619" type="curve" smooth="yes"/>
      <point x="378.157" y="457.619"/>
      <point x="428" y="415.827"/>
      <point x="428" y="344" type="curve" smooth="yes"/>
      <point x="428" y="339" type="line"/>
      <point x="513" y="339" type="line"/>
      <point x="513" y="344" type="line" smooth="yes"/>
      <point x="513" y="454.317"/>
      <point x="442.939" y="524.749"/>
      <point x="324" y="534" type="curve"/>
      <point x="324" y="626" type="line"/>
      <point x="261" y="626" type="line"/>
      <point x="261" y="534" type="line"/>
      <point x="126.883" y="520.315"/>
      <point x="53" y="433.288"/>
      <point x="53" y="289" type="curve" smooth="yes"/>
      <point x="53" y="237" type="line" smooth="yes"/>
      <point x="53" y="92.045"/>
      <point x="127.53" y="4.257"/>
      <point x="261" y="-8" type="curve"/>
    </contour>
  </outline>
</glyph>
<glyph name="sterling" format="2">
  <advance width="513"/>
  <unicode hex="00A3"/>
  <outline>
    <contour>
      <point x="55" y="0" type="line"/>
      <point x="482" y="0" type="line"/>
      <point x="482" y="84" type="line"/>
      <point x="164" y="84" type="line"/>
      <point x="190.078" y="110.078"/>
      <point x="202" y="143.333"/>
      <point x="202" y="190" type="curve" smooth="yes"/>
      <point x="202" y="294" type="line"/>
      <point x="376" y="294" type="line"/>
      <point x="376" y="376" type="line"/>
      <point x="202" y="376" type="line"/>
      <point x="202" y="526" type="line" smooth="yes"/>
      <point x="202" y="598.667"/>
      <point x="233.333" y="635"/>
      <point x="296" y="635" type="curve" smooth="yes"/>
      <point x="360.03" y="635"/>
      <point x="390" y="606.305"/>
      <point x="390" y="545" type="curve"/>
      <point x="479" y="545" type="line"/>
      <point x="479" y="655.777"/>
      <point x="414.217" y="717"/>
      <point x="297" y="717" type="curve" smooth="yes"/>
      <point x="175.161" y="717"/>
      <point x="109" y="645.56"/>
      <point x="109" y="514" type="curve" smooth="yes"/>
      <point x="109" y="376" type="line"/>
      <point x="32" y="376" type="line"/>
      <point x="32" y="294" type="line"/>
      <point x="109" y="294" type="line"/>
      <point x="109" y="180" type="line" smooth="yes"/>
      <point x="109" y="125.173"/>
      <point x="93.554" y="96.283"/>
      <point x="55" y="79" type="curve"/>
    </contour>
  </outline>
</glyph>
<glyph name="yen" format="2">
  <advance width="544"/>
  <unicode hex="00A5"/>
  <outline>
    <contour>
      <point x="59" y="146" type="line"/>
      <point x="226" y="146" type="line"/>
      <point x="226" y="0" type="line"/>
      <point x="319" y="0" type="line"/>
      <point x="319" y="146" type="line"/>
      <point x="487" y="146" type="line"/>
      <point x="487" y="214" type="line"/>
      <point x="319" y="214" type="line"/>
      <point x="319" y="278" type="line"/>
      <point x="487" y="278" type="line"/>
      <point x="487" y="346" type="line"/>
      <point x="341" y="346" type="line"/>
      <point x="536" y="707" type="line"/>
      <point x="433" y="707" type="line"/>
      <point x="273" y="388" type="line"/>
      <point x="112" y="707" type="line"/>
      <point x="9" y="707" type="line"/>
      <point x="205" y="346" type="line"/>
      <point x="59" y="346" type="line"/>
      <point x="59" y="278" type="line"/>
      <point x="226" y="278" type="line"/>
      <point x="226" y="214" type="line"/>
      <point x="59" y="214" type="line"/>
    </contour>
  </outline>
</glyph>
<glyph name="brokenbar" format="2">
  <advance width="296"/>
  <unicode hex="00A6"/>
  <outline>
    <contour>
      <point x="106" y="382" type="line"/>
      <point x="190" y="382" type="line"/>
      <point x="190" y="742" type="line"/>
      <point x="106" y="742" type="line"/>
    </contour>
    <contour>
      <point x="106" y="-70" type="line"/>
      <point x="190" y="-70" type="line"/>
      <point x="190" y="292" type="line"/>
      <point x="106" y="292" type="line"/>
    </contour>
  </outline>
</glyph>
<glyph name="section" format="2">
  <advance width="572"/>
  <unicode hex="00A7"/>
  <outline>
    <contour>
      <point x="89" y="-1" type="line"/>
      <point x="89" y="-111.066"/>
      <point x="158.486" y="-172"/>
      <point x="284" y="-172" type="curve" smooth="yes"/>
      <point x="405.321" y="-172"/>
      <point x="479" y="-111.923"/>
      <point x="479" y="-13" type="curve" smooth="yes"/>
      <point x="479" y="53.161"/>
      <point x="449.806" y="96.472"/>
      <point x="388" y="122" type="curve"/>
      <point x="459.066" y="144.795"/>
      <point x="499" y="203.796"/>
      <point x="499" y="286" type="curve" smooth="yes"/>
      <point x="499" y="384.804"/>
      <point x="445.258" y="440.14"/>
      <point x="336" y="469" type="curve" smooth="yes"/>
      <point x="236.619" y="495.251"/>
      <point x="187" y="525.163"/>
      <point x="187" y="574" type="curve" smooth="yes"/>
      <point x="187" y="625.621"/>
      <point x="223.183" y="654"/>
      <point x="289" y="654" type="curve" smooth="yes"/>
      <point x="358.333" y="654"/>
      <point x="393" y="624.667"/>
      <point x="393" y="566" type="curve"/>
      <point x="477" y="566" type="line"/>
      <point x="477" y="671.529"/>
      <point x="409.6" y="731"/>
      <point x="290" y="731" type="curve" smooth="yes"/>
      <point x="172.938" y="731"/>
      <point x="99" y="670.223"/>
      <point x="99" y="574" type="curve" smooth="yes"/>
      <point x="99" y="509.356"/>
      <point x="127.386" y="467.099"/>
      <point x="187" y="443" type="curve"/>
      <point x="113.697" y="418.129"/>
      <point x="74" y="360.516"/>
      <point x="74" y="279" type="curve" smooth="yes"/>
      <point x="74" y="181.166"/>
      <point x="123.189" y="125.788"/>
      <point x="239" y="95" type="curve" smooth="yes"/>
      <point x="335.724" y="69.286"/>
      <point x="391" y="37.671"/>
      <point x="391" y="-12" type="curve" smooth="yes"/>
      <point x="391" y="-66.741"/>
      <point x="354.57" y="-95"/>
      <point x="284" y="-95" type="curve" smooth="yes"/>
      <point x="210" y="-95"/>
      <point x="173" y="-63.667"/>
      <point x="173" y="-1" type="curve"/>
    </contour>
    <contour>
      <point x="162" y="282" type="curve" smooth="yes"/>
      <point x="162" y="354.112"/>
      <point x="205.793" y="393"/>
      <point x="287" y="393" type="curve" smooth="yes"/>
      <point x="367.216" y="393"/>
      <point x="411" y="353.806"/>
      <point x="411" y="282" type="curve" smooth="yes"/>
      <point x="411" y="210.3"/>
      <point x="367.098" y="171"/>
      <point x="287" y="171" type="curve" smooth="yes"/>
      <point x="205.126" y="171"/>
      <point x="162" y="209.296"/>
    </contour>
  </outline>
</glyph>
<glyph name="ordfeminine" format="2">
  <advance width="391"/>
  <unicode hex="00AA"/>
  <outline>
    <contour>
      <point x="265" y="440" type="line"/>
      <point x="335" y="440" type="line"/>
      <point x="335" y="647" type="line" smooth="yes"/>
      <point x="335" y="726"/>
      <point x="288" y="766"/>
      <point x="193" y="766" type="curve" smooth="yes"/>
      <point x="105" y="766"/>
      <point x="54" y="731"/>
      <point x="54" y="670" type="curve" smooth="yes"/>
      <point x="54" y="667" type="line"/>
      <point x="122" y="667" type="line"/>
      <point x="122" y="670" type="line" smooth="yes"/>
      <point x="122" y="695"/>
      <point x="147" y="710"/>
      <point x="189" y="710" type="curve" smooth="yes"/>
      <point x="238" y="710"/>
      <point x="262" y="691"/>
      <point x="262" y="651" type="curve" smooth="yes"/>
      <point x="262" y="630" type="line"/>
      <point x="172" y="630" type="line" smooth="yes"/>
      <point x="88" y="630"/>
      <point x="44" y="597"/>
      <point x="44" y="535" type="curve" smooth="yes"/>
      <point x="44" y="472"/>
      <point x="87" y="436"/>
      <point x="163" y="436" type="curve" smooth="yes"/>
      <point x="206" y="436"/>
      <point x="240" y="449"/>
      <point x="265" y="474" type="curve"/>
    </contour>
    <contour>
      <point x="262" y="580" type="line"/>
      <point x="262" y="565" type="line" smooth="yes"/>
      <point x="262" y="518"/>
      <point x="236" y="496"/>
      <point x="179" y="496" type="curve" smooth="yes"/>
      <point x="136" y="496"/>
      <point x="115" y="510"/>
      <point x="115" y="538" type="curve" smooth="yes"/>
      <point x="115" y="567"/>
      <point x="136" y="580"/>
      <point x="182" y="580" type="curve" smooth="yes"/>
    </contour>
  </outline>
</glyph>
<glyph name="logicalnot" format="2">
  <advance width="521"/>
  <unicode hex="00AC"/>
  <outline>
    <contour>
      <point x="54" y="267" type="line"/>
      <point x="379" y="267" type="line"/>
      <point x="379" y="132" type="line"/>
      <point x="467" y="132" type="line"/>
      <point x="467" y="346" type="line"/>
      <point x="54" y="346" type="line"/>
    </contour>
  </outline>
</glyph>
<glyph name="macron" format="2">
  <advance width="512"/>
  <unicode hex="00AF"/>
  <outline>
    <contour>
      <point x="100" y="604" type="line"/>
      <point x="413" y="604" type="line"/>
      <point x="413" y="683" type="line"/>
      <point x="100" y="683" type="line"/>
    </contour>
  </outline>
</glyph>
<glyph name="degree" format="2">
  <advance width="410"/>
  <unicode hex="00B0"/>
  <outline>
    <contour>
      <point x="62" y="573" type="curve" smooth="yes"/>
      <point x="62" y="490.168"/>
      <point x="123.593" y="429"/>
      <point x="207" y="429" type="curve" smooth="yes"/>
      <point x="287.086" y="429"/>
      <point x="350" y="492.353"/>
      <point x="350" y="573" type="curve" smooth="yes"/>
      <point x="350" y="655.094"/>
      <point x="288.524" y="717"/>
      <point x="207" y="717" type="curve" smooth="yes"/>
      <point x="123.593" y="717"/>
      <point x="62" y="655.832"/>
    </contour>
    <contour>
      <point x="207" y="487" type="curve" smooth="yes"/>
      <point x="158.24" y="487"/>
      <point x="123" y="523.079"/>
      <point x="123" y="573" type="curve" smooth="yes"/>
      <point x="123" y="623.881"/>
      <point x="157.874" y="660"/>
      <point x="207" y="660" type="curve" smooth="yes"/>
      <point x="255.169" y="660"/>
      <point x="290" y="623.49"/>
      <point x="290" y="573" type="curve" smooth="yes"/>
      <point x="290" y="523.853"/>
      <point x="254.432" y="487"/>
    </contour>
  </outline>
</glyph>
<glyph name="plusminus" format="2">
  <advance width="521"/>
  <unicode hex="00B1"/>
  <outline>
    <contour>
      <point x="219" y="122" type="line"/>
      <point x="302" y="122" type="line"/>
      <point x="302" y="287" type="line"/>
      <point x="467" y="287" type="line"/>
      <point x="467" y="370" type="line"/>
      <point x="302" y="370" type="line"/>
      <point x="302" y="535" type="line"/>
      <point x="219" y="535" type="line"/>
      <point x="219" y="370" type="line"/>
      <point x="54" y="370" type="line"/>
      <point x="54" y="287" type="line"/>
      <point x="219" y="287" type="line"/>
    </contour>
    <contour>
      <point x="54" y="-11" type="line"/>
      <point x="467" y="-11" type="line"/>
      <point x="467" y="72" type="line"/>
      <point x="54" y="72" type="line"/>
    </contour>
  </outline>
</glyph>
<glyph name="mu" format="2">
  <advance width="584"/>
  <unicode hex="00B5"/>
  <outline>
    <contour>
      <point x="69" y="-157" type="line"/>
      <point x="156" y="-157" type="line"/>
      <point x="156" y="34" type="line"/>
      <point x="182.667" y="7.333"/>
      <point x="222.667" y="-6"/>
      <point x="276" y="-6" type="curve" smooth="yes"/>
      <point x="343.333" y="-6"/>
      <point x="394.667" y="18.667"/>
      <point x="430" y="68" type="curve"/>
      <point x="430" y="0" type="line"/>
      <point x="516" y="0" type="line"/>
      <point x="516" y="524" type="line"/>
      <point x="428" y="524" type="line"/>
      <point x="428" y="221" type="line" smooth="yes"/>
      <point x="428" y="126.185"/>
      <point x="376.862" y="71"/>
      <point x="289" y="71" type="curve" smooth="yes"/>
      <point x="203.667" y="71"/>
      <point x="156" y="118.667"/>
      <point x="156" y="204" type="curve" smooth="yes"/>
      <point x="156" y="524" type="line"/>
      <point x="69" y="524" type="line"/>
    </contour>
  </outline>
</glyph>
<glyph name="paragraph" format="2">
  <advance width="697"/>
  <unicode hex="00B6"/>
  <outline>
    <contour>
      <point x="333" y="-157" type="line"/>
      <point x="415" y="-157" type="line"/>
      <point x="415" y="629" type="line"/>
      <point x="505" y="629" type="line"/>
      <point x="505" y="-157" type="line"/>
      <point x="587" y="-157" type="line"/>
      <point x="587" y="707" type="line"/>
      <point x="316" y="707" type="line" smooth="yes"/>
      <point x="163.422" y="707"/>
      <point x="74" y="626.815"/>
      <point x="74" y="490" type="curve" smooth="yes"/>
      <point x="74" y="353.373"/>
      <point x="168.412" y="275"/>
      <point x="333" y="275" type="curve"/>
    </contour>
  </outline>
</glyph>
<glyph name="onequarter" format="2">
  <advance width="815"/>
  <unicode hex="00BC"/>
  <outline>
    <contour>
      <point x="127" y="0" type="line"/>
      <point x="202" y="0" type="line"/>
      <point x="592" y="709" type="line"/>
      <point x="516" y="709" type="line"/>
    </contour>
    <contour>
      <point x="99.026" y="279.986" type="line"/>
      <point x="179.026" y="279.986" type="line"/>
      <point x="179.026" y="706.986" type="line"/>
      <point x="99.026" y="706.986" type="line"/>
      <point x="12.026" y="653.986" type="line"/>
      <point x="12.026" y="570.986" type="line"/>
      <point x="99.026" y="624.986" type="line"/>
    </contour>
    <contour>
      <point x="456.401" y="72" type="line"/>
      <point x="657.401" y="72" type="line"/>
      <point x="657.401" y="-5" type="line"/>
      <point x="727.401" y="-5" type="line"/>
      <point x="727.401" y="72" type="line"/>
      <point x="767.401" y="72" type="line"/>
      <point x="767.401" y="132" type="line"/>
      <point x="727.401" y="132" type="line"/>
      <point x="727.401" y="233" type="line"/>
      <point x="657.401" y="233" type="line"/>
      <point x="657.401" y="132" type="line"/>
      <point x="527.401" y="132" type="line"/>
      <point x="645.401" y="422" type="line"/>
      <point x="576.401" y="422" type="line"/>
      <point x="456.401" y="132" type="line"/>
    </contour>
  </outline>
</glyph>
<glyph name="onehalf" format="2">
  <advance width="806"/>
  <unicode hex="00BD"/>
  <outline>
    <contour>
      <point x="115" y="0" type="line"/>
      <point x="190" y="0" type="line"/>
      <point x="580" y="709" type="line"/>
      <point x="504" y="709" type="line"/>
    </contour>
    <contour>
      <point x="99.026" y="279.986" type="line"/>
      <point x="179.026" y="279.986" type="line"/>
      <point x="179.026" y="706.986" type="line"/>
      <point x="99.026" y="706.986" type="line"/>
      <point x="12.026" y="653.986" type="line"/>
      <point x="12.026" y="570.986" type="line"/>
      <point x="99.026" y="624.986" type="line"/>
    </contour>
    <contour>
      <point x="488.472" y="0" type="line"/>
      <point x="772.472" y="0" type="line"/>
      <point x="772.472" y="69" type="line"/>
      <point x="599.472" y="69" type="line"/>
      <point x="708.472" y="186" type="line" smooth="yes"/>
      <point x="750.329" y="230.929"/>
      <point x="770.472" y="261.419"/>
      <point x="770.472" y="306" type="curve" smooth="yes"/>
      <point x="770.472" y="315" type="line" smooth="yes"/>
      <point x="770.472" y="389.364"/>
      <point x="717.584" y="434"/>
      <point x="629.472" y="434" type="curve" smooth="yes"/>
      <point x="538.601" y="434"/>
      <point x="484.472" y="388.83"/>
      <point x="484.472" y="313" type="curve" smooth="yes"/>
      <point x="484.472" y="303" type="line"/>
      <point x="561.472" y="303" type="line"/>
      <point x="561.472" y="311" type="line" smooth="yes"/>
      <point x="561.472" y="348.703"/>
      <point x="584.219" y="369"/>
      <point x="626.472" y="369" type="curve" smooth="yes"/>
      <point x="668.764" y="369"/>
      <point x="690.472" y="349.667"/>
      <point x="690.472" y="312" type="curve" smooth="yes"/>
      <point x="690.472" y="305" type="line" smooth="yes"/>
      <point x="690.472" y="281.553"/>
      <point x="679.76" y="261.504"/>
      <point x="651.472" y="232" type="curve" smooth="yes"/>
      <point x="488.472" y="62" type="line"/>
    </contour>
  </outline>
</glyph>
<glyph name="threequarters" format="2">
  <advance width="908"/>
  <unicode hex="00BE"/>
  <outline>
    <contour>
      <point x="226" y="0" type="line"/>
      <point x="300" y="0" type="line"/>
      <point x="691" y="709" type="line"/>
      <point x="615" y="709" type="line"/>
    </contour>
    <contour>
      <point x="29.789" y="398.453" type="line"/>
      <point x="29.789" y="390.453" type="line" smooth="yes"/>
      <point x="29.789" y="317.299"/>
      <point x="81.869" y="274.453"/>
      <point x="170.789" y="274.453" type="curve" smooth="yes"/>
      <point x="261.228" y="274.453"/>
      <point x="316.789" y="321.261"/>
      <point x="316.789" y="397.453" type="curve" smooth="yes"/>
      <point x="316.789" y="406.453" type="line" smooth="yes"/>
      <point x="316.789" y="457.12"/>
      <point x="294.455" y="490.786"/>
      <point x="249.789" y="507.453" type="curve"/>
      <point x="289.789" y="524.786"/>
      <point x="309.789" y="554.453"/>
      <point x="309.789" y="596.453" type="curve" smooth="yes"/>
      <point x="309.789" y="604.453" type="line" smooth="yes"/>
      <point x="309.789" y="673.273"/>
      <point x="257.752" y="714.453"/>
      <point x="170.789" y="714.453" type="curve" smooth="yes"/>
      <point x="83.519" y="714.453"/>
      <point x="31.789" y="671.283"/>
      <point x="31.789" y="598.453" type="curve" smooth="yes"/>
      <point x="31.789" y="591.453" type="line"/>
      <point x="102.789" y="591.453" type="line"/>
      <point x="102.789" y="598.453" type="line" smooth="yes"/>
      <point x="102.789" y="631.191"/>
      <point x="126.063" y="649.453"/>
      <point x="167.789" y="649.453" type="curve" smooth="yes"/>
      <point x="211.122" y="649.453"/>
      <point x="232.789" y="631.786"/>
      <point x="232.789" y="596.453" type="curve" smooth="yes"/>
      <point x="232.789" y="589.453" type="line" smooth="yes"/>
      <point x="232.789" y="552.786"/>
      <point x="209.789" y="534.453"/>
      <point x="163.789" y="534.453" type="curve" smooth="yes"/>
      <point x="139.789" y="534.453" type="line"/>
      <point x="139.789" y="468.453" type="line"/>
      <point x="163.789" y="468.453" type="line" smooth="yes"/>
      <point x="215.524" y="468.453"/>
      <point x="239.789" y="448.339"/>
      <point x="239.789" y="405.453" type="curve" smooth="yes"/>
      <point x="239.789" y="397.453" type="line" smooth="yes"/>
      <point x="239.789" y="358.786"/>
      <point x="216.455" y="339.453"/>
      <point x="169.789" y="339.453" type="curve" smooth="yes"/>
      <point x="123.789" y="339.453"/>
      <point x="100.789" y="357.12"/>
      <point x="100.789" y="392.453" type="curve" smooth="yes"/>
      <point x="100.789" y="398.453" type="line"/>
    </contour>
    <contour>
      <point x="557" y="77" type="line"/>
      <point x="758" y="77" type="line"/>
      <point x="758" y="0" type="line"/>
      <point x="828" y="0" type="line"/>
      <point x="828" y="77" type="line"/>
      <point x="868" y="77" type="line"/>
      <point x="868" y="137" type="line"/>
      <point x="828" y="137" type="line"/>
      <point x="828" y="238" type="line"/>
      <point x="758" y="238" type="line"/>
      <point x="758" y="137" type="line"/>
      <point x="628" y="137" type="line"/>
      <point x="746" y="427" type="line"/>
      <point x="677" y="427" type="line"/>
      <point x="557" y="137" type="line"/>
    </contour>
  </outline>
</glyph>
<glyph name="questiondown" format="2">
  <advance width="496"/>
  <unicode hex="00BF"/>
  <outline>
    <contour>
      <point x="204" y="418" type="line"/>
      <point x="307" y="418" type="line"/>
      <point x="307" y="524" type="line"/>
      <point x="204" y="524" type="line"/>
    </contour>
    <contour>
      <point x="373" y="24" type="line"/>
      <point x="373" y="-48.667"/>
      <point x="333.667" y="-85"/>
      <point x="255" y="-85" type="curve" smooth="yes"/>
      <point x="177.596" y="-85"/>
      <point x="135" y="-51.278"/>
      <point x="135" y="10" type="curve" smooth="yes"/>
      <point x="135" y="52.976"/>
      <point x="148.788" y="81.082"/>
      <point x="187" y="116" type="curve" smooth="yes"/>
      <point x="245" y="169" type="line" smooth="yes"/>
      <point x="288.484" y="208.735"/>
      <point x="301" y="238.908"/>
      <point x="301" y="304" type="curve" smooth="yes"/>
      <point x="301" y="338" type="line"/>
      <point x="211" y="338" type="line"/>
      <point x="211" y="308" type="line" smooth="yes"/>
      <point x="211" y="264.191"/>
      <point x="203.121" y="245.323"/>
      <point x="173" y="217" type="curve" smooth="yes"/>
      <point x="106" y="154" type="line" smooth="yes"/>
      <point x="62.656" y="113.243"/>
      <point x="43" y="67.068"/>
      <point x="43" y="6" type="curve" smooth="yes"/>
      <point x="43" y="-101.521"/>
      <point x="122.483" y="-167"/>
      <point x="253" y="-167" type="curve" smooth="yes"/>
      <point x="384.78" y="-167"/>
      <point x="459.329" y="-98.872"/>
      <point x="462" y="24" type="curve"/>
    </contour>
  </outline>
</glyph>
<glyph name="AE" format="2">
  <advance width="1024"/>
  <unicode hex="00C6"/>
  <anchor x="553" y="760" name="top"/>
  <outline>
    <contour>
      <point x="6" y="0" type="line"/>
      <point x="110" y="0" type="line"/>
      <point x="210" y="165" type="line"/>
      <point x="493" y="165" type="line"/>
      <point x="493" y="0" type="line"/>
      <point x="980" y="0" type="line"/>
      <point x="980" y="83" type="line"/>
      <point x="586" y="83" type="line"/>
      <point x="586" y="317" type="line"/>
      <point x="924" y="317" type="line"/>
      <point x="924" y="400" type="line"/>
      <point x="586" y="400" type="line"/>
      <point x="586" y="624" type="line"/>
      <point x="980" y="624" type="line"/>
      <point x="980" y="707" type="line"/>
      <point x="441" y="707" type="line"/>
    </contour>
    <contour>
      <point x="258" y="244" type="line"/>
      <point x="493" y="629" type="line"/>
      <point x="493" y="244" type="line"/>
    </contour>
  </outline>
</glyph>
<glyph name="Eth" format="2">
  <advance width="742"/>
  <unicode hex="00D0"/>
  <outline>
    <component base="D" xOffset="52"/>
    <contour>
      <point x="35" y="317" type="line"/>
      <point x="393" y="317" type="line"/>
      <point x="393" y="400" type="line"/>
      <point x="35" y="400" type="line"/>
    </contour>
  </outline>
</glyph>
<glyph name="Thorn" format="2">
  <advance width="652"/>
  <unicode hex="00DE"/>
  <outline>
    <contour>
      <point x="74" y="0" type="line"/>
      <point x="167" y="0" type="line"/>
      <point x="167" y="159" type="line"/>
      <point x="378" y="159" type="line" smooth="yes"/>
      <point x="535.646" y="159"/>
      <point x="621" y="233.114"/>
      <point x="621" y="370" type="curve" smooth="yes"/>
      <point x="621" y="507.604"/>
      <point x="535.726" y="582"/>
      <point x="378" y="582" type="curve" smooth="yes"/>
      <point x="167" y="582" type="line"/>
      <point x="167" y="707" type="line"/>
      <point x="74" y="707" type="line"/>
    </contour>
    <contour>
      <point x="167" y="242" type="line"/>
      <point x="167" y="499" type="line"/>
      <point x="375" y="499" type="line" smooth="yes"/>
      <point x="482.472" y="499"/>
      <point x="528" y="460.316"/>
      <point x="528" y="369" type="curve" smooth="yes"/>
      <point x="528" y="281.98"/>
      <point x="481.409" y="242"/>
      <point x="380" y="242" type="curve" smooth="yes"/>
    </contour>
  </outline>
</glyph>
<glyph name="germandbls" format="2">
  <advance width="573"/>
  <unicode hex="00DF"/>
  <outline>
    <contour>
      <point x="69" y="0" type="line"/>
      <point x="156" y="0" type="line"/>
      <point x="156" y="514" type="line" smooth="yes"/>
      <point x="156" y="602.284"/>
      <point x="195.797" y="637"/>
      <point x="297" y="637" type="curve" smooth="yes"/>
      <point x="384.636" y="637"/>
      <point x="424" y="610.344"/>
      <point x="424" y="551" type="curve" smooth="yes"/>
      <point x="424" y="493.158"/>
      <point x="390.659" y="468"/>
      <point x="314" y="468" type="curve" smooth="yes"/>
      <point x="283" y="468" type="line"/>
      <point x="283" y="391" type="line"/>
      <point x="308" y="391" type="line" smooth="yes"/>
      <point x="403.784" y="391"/>
      <point x="433" y="353.37"/>
      <point x="433" y="230" type="curve" smooth="yes"/>
      <point x="433" y="105.783"/>
      <point x="408.36" y="73"/>
      <point x="315" y="73" type="curve" smooth="yes"/>
      <point x="284" y="73" type="line"/>
      <point x="284" y="-4" type="line"/>
      <point x="321" y="-4" type="line" smooth="yes"/>
      <point x="469.419" y="-4"/>
      <point x="520" y="56.24"/>
      <point x="520" y="233" type="curve" smooth="yes"/>
      <point x="520" y="353.601"/>
      <point x="496.753" y="408.952"/>
      <point x="436" y="433" type="curve"/>
      <point x="487.657" y="457.469"/>
      <point x="511" y="495.129"/>
      <point x="511" y="554" type="curve" smooth="yes"/>
      <point x="511" y="657.441"/>
      <point x="433.42" y="715"/>
      <point x="294" y="715" type="curve" smooth="yes"/>
      <point x="141" y="715"/>
      <point x="69" y="647.8"/>
      <point x="69" y="505" type="curve" smooth="yes"/>
    </contour>
  </outline>
</glyph>
<glyph name="ae" format="2">
  <advance width="922"/>
  <unicode hex="00E6"/>
  <anchor x="459" y="586" name="top"/>
  <outline>
    <contour>
      <point x="60" y="370" type="line"/>
      <point x="145" y="370" type="line"/>
      <point x="145" y="373" type="line" smooth="yes"/>
      <point x="145" y="428.301"/>
      <point x="188.907" y="459"/>
      <point x="268" y="459" type="curve" smooth="yes"/>
      <point x="360.667" y="459"/>
      <point x="407" y="419.333"/>
      <point x="407" y="340" type="curve" smooth="yes"/>
      <point x="407" y="305" type="line"/>
      <point x="244" y="305" type="line" smooth="yes"/>
      <point x="112.763" y="305"/>
      <point x="43" y="252.244"/>
      <point x="43" y="153" type="curve" smooth="yes"/>
      <point x="43" y="52.077"/>
      <point x="119.8" y="-7"/>
      <point x="251" y="-7" type="curve" smooth="yes"/>
      <point x="345.667" y="-7"/>
      <point x="413" y="21.667"/>
      <point x="453" y="79" type="curve"/>
      <point x="495" y="20.333"/>
      <point x="561.333" y="-9"/>
      <point x="652" y="-9" type="curve" smooth="yes"/>
      <point x="777.211" y="-9"/>
      <point x="866" y="61.416"/>
      <point x="866" y="165" type="curve" smooth="yes"/>
      <point x="866" y="169" type="line"/>
      <point x="780" y="169" type="line"/>
      <point x="780" y="166" type="line" smooth="yes"/>
      <point x="780" y="105.073"/>
      <point x="727.926" y="67"/>
      <point x="652" y="67" type="curve" smooth="yes"/>
      <point x="546.667" y="67"/>
      <point x="494" y="123.667"/>
      <point x="494" y="237" type="curve" smooth="yes"/>
      <point x="494" y="241" type="line"/>
      <point x="869" y="241" type="line"/>
      <point x="869" y="301" type="line" smooth="yes"/>
      <point x="869" y="450.61"/>
      <point x="785.692" y="535"/>
      <point x="638" y="535" type="curve" smooth="yes"/>
      <point x="561.237" y="535"/>
      <point x="499.299" y="508.703"/>
      <point x="459" y="459" type="curve"/>
      <point x="420.333" y="507"/>
      <point x="356.333" y="531"/>
      <point x="267" y="531" type="curve" smooth="yes"/>
      <point x="138.367" y="531"/>
      <point x="60" y="471.184"/>
      <point x="60" y="373" type="curve" smooth="yes"/>
    </contour>
    <contour>
      <point x="494" y="306" type="line"/>
      <point x="499.239" y="406.853"/>
      <point x="548.031" y="458"/>
      <point x="639" y="458" type="curve" smooth="yes"/>
      <point x="733.995" y="458"/>
      <point x="782" y="409.66"/>
      <point x="782" y="314" type="curve" smooth="yes"/>
      <point x="782" y="306" type="line"/>
    </contour>
    <contour>
      <point x="407" y="241" type="line"/>
      <point x="407" y="200" type="line" smooth="yes"/>
      <point x="407" y="110.639"/>
      <point x="357.304" y="65"/>
      <point x="260" y="65" type="curve" smooth="yes"/>
      <point x="173.491" y="65"/>
      <point x="129" y="95.226"/>
      <point x="129" y="154" type="curve" smooth="yes"/>
      <point x="129" y="213.674"/>
      <point x="169.517" y="241"/>
      <point x="258" y="241" type="curve" smooth="yes"/>
    </contour>
  </outline>
</glyph>
<glyph name="divide" format="2">
  <advance width="521"/>
  <unicode hex="00F7"/>
  <outline>
    <contour>
      <point x="260" y="381" type="curve" smooth="yes"/>
      <point x="292" y="381"/>
      <point x="315" y="404"/>
      <point x="315" y="436" type="curve" smooth="yes"/>
      <point x="315" y="467.042"/>
      <point x="291.617" y="490"/>
      <point x="260" y="490" type="curve" smooth="yes"/>
      <point x="230" y="490"/>
      <point x="206" y="466"/>
      <point x="206" y="436" type="curve" smooth="yes"/>
      <point x="206" y="405.529"/>
      <point x="230.083" y="381"/>
    </contour>
    <contour>
      <point x="54" y="242" type="line"/>
      <point x="467" y="242" type="line"/>
      <point x="467" y="324" type="line"/>
      <point x="54" y="324" type="line"/>
    </contour>
    <contour>
      <point x="260" y="77" type="curve" smooth="yes"/>
      <point x="291.617" y="77"/>
      <point x="315" y="99.958"/>
      <point x="315" y="131" type="curve" smooth="yes"/>
      <point x="315" y="163"/>
      <point x="292" y="186"/>
      <point x="260" y="186" type="curve" smooth="yes"/>
      <point x="229.624" y="186"/>
      <point x="206" y="161.938"/>
      <point x="206" y="131" type="curve" smooth="yes"/>
      <point x="206" y="101.482"/>
      <point x="230.482" y="77"/>
    </contour>
  </outline>
</glyph>
<glyph name="dcaron" format="2">
  <advance width="672"/>
  <unicode hex="010F"/>
  <outline>
    <component base="d"/>
    <contour>
      <point x="589" y="539" type="line"/>
      <point x="672" y="613" type="line"/>
      <point x="672" y="707" type="line"/>
      <point x="589" y="707" type="line"/>
    </contour>
  </outline>
</glyph>
<glyph name="Hbar" format="2">
  <advance width="701"/>
  <unicode hex="0126"/>
  <outline>
    <contour>
      <point x="43" y="513" type="line"/>
      <point x="659" y="513" type="line"/>
      <point x="659" y="596" type="line"/>
      <point x="43" y="596" type="line"/>
    </contour>
    <contour>
      <point x="146.64" y="319" type="line"/>
      <point x="556.36" y="319" type="line"/>
      <point x="556.36" y="401" type="line"/>
      <point x="146.64" y="401" type="line"/>
    </contour>
    <contour>
      <point x="536" y="0" type="line"/>
      <point x="628" y="0" type="line"/>
      <point x="628" y="707" type="line"/>
      <point x="536" y="707" type="line"/>
    </contour>
    <contour>
      <point x="74" y="0" type="line"/>
      <point x="167" y="0" type="line"/>
      <point x="167" y="707" type="line"/>
      <point x="74" y="707" type="line"/>
    </contour>
  </outline>
</glyph>
<glyph name="hbar" format="2">
  <advance width="585"/>
  <unicode hex="0127"/>
  <outline>
    <component base="h"/>
    <contour>
      <point x="33" y="593" type="line"/>
      <point x="359" y="593" type="line"/>
      <point x="359" y="656" type="line"/>
      <point x="33" y="656" type="line"/>
    </contour>
  </outline>
</glyph>
<glyph name="IJ" format="2">
  <advance width="708"/>
  <unicode hex="0132"/>
  <outline>
    <contour>
      <point x="87" y="160" type="line"/>
      <point x="119.679" y="53.793"/>
      <point x="215.853" y="-6"/>
      <point x="354" y="-6" type="curve" smooth="yes"/>
      <point x="531.442" y="-6"/>
      <point x="635" y="89.45"/>
      <point x="635" y="253" type="curve" smooth="yes"/>
      <point x="635" y="707" type="line"/>
      <point x="542" y="707" type="line"/>
      <point x="542" y="259" type="line" smooth="yes"/>
      <point x="542" y="136.669"/>
      <point x="478.667" y="76"/>
      <point x="354" y="76" type="curve" smooth="yes"/>
      <point x="269" y="76"/>
      <point x="213" y="104"/>
      <point x="186" y="160" type="curve"/>
    </contour>
    <contour>
      <point x="74" y="318" type="line"/>
      <point x="167" y="318" type="line"/>
      <point x="167" y="707" type="line"/>
      <point x="74" y="707" type="line"/>
    </contour>
  </outline>
</glyph>
<glyph name="ij" format="2">
  <advance width="535"/>
  <unicode hex="0133"/>
  <outline>
    <contour>
      <point x="79" y="611" type="line"/>
      <point x="166" y="611" type="line"/>
      <point x="166" y="706" type="line"/>
      <point x="79" y="706" type="line"/>
    </contour>
    <contour>
      <point x="381" y="611" type="line"/>
      <point x="467" y="611" type="line"/>
      <point x="467" y="706" type="line"/>
      <point x="381" y="706" type="line"/>
    </contour>
    <contour>
      <point x="68" y="-16" type="line"/>
      <point x="75.087" y="-102.813"/>
      <point x="153.637" y="-164"/>
      <point x="258" y="-164" type="curve" smooth="yes"/>
      <point x="380.893" y="-164"/>
      <point x="467" y="-77.893"/>
      <point x="467" y="45" type="curve" smooth="yes"/>
      <point x="467" y="524" type="line"/>
      <point x="381" y="524" type="line"/>
      <point x="381" y="251" type="line" smooth="yes"/>
      <point x="381" y="164.32"/>
      <point x="330.453" y="103"/>
      <point x="259" y="103" type="curve" smooth="yes"/>
      <point x="198" y="103"/>
      <point x="166" y="156.333"/>
      <point x="166" y="258" type="curve" smooth="yes"/>
      <point x="166" y="524" type="line"/>
      <point x="79" y="524" type="line"/>
      <point x="79" y="253" type="line" smooth="yes"/>
      <point x="79" y="114.122"/>
      <point x="152.095" y="25"/>
      <point x="266" y="25" type="curve" smooth="yes"/>
      <point x="308.627" y="25"/>
      <point x="359.764" y="51.235"/>
      <point x="381" y="84" type="curve"/>
      <point x="381" y="39" type="line" smooth="yes"/>
      <point x="381" y="-33.945"/>
      <point x="335.335" y="-90"/>
      <point x="259" y="-90" type="curve" smooth="yes"/>
      <point x="207.829" y="-90"/>
      <point x="163.299" y="-58.913"/>
      <point x="153" y="-16" type="curve"/>
    </contour>
  </outline>
</glyph>
<glyph name="lslash" format="2">
  <advance width="309"/>
  <unicode hex="0142"/>
  <outline>
    <component base="l"/>
    <contour>
      <point x="2.5" y="279" type="line"/>
      <point x="245" y="420" type="line"/>
      <point x="245" y="531" type="line"/>
      <point x="2.5" y="390" type="line"/>
    </contour>
  </outline>
</glyph>
<glyph name="OE" format="2">
  <advance width="1085"/>
  <unicode hex="0152"/>
  <outline>
    <contour>
      <point x="561" y="0" type="line"/>
      <point x="1040" y="0" type="line"/>
      <point x="1040" y="83" type="line"/>
      <point x="651" y="83" type="line"/>
      <point x="651" y="317" type="line"/>
      <point x="984" y="317" type="line"/>
      <point x="984" y="400" type="line"/>
      <point x="651" y="400" type="line"/>
      <point x="651" y="624" type="line"/>
      <point x="1040" y="624" type="line"/>
      <point x="1040" y="707" type="line"/>
      <point x="561" y="707" type="line"/>
      <point x="561" y="647" type="line"/>
      <point x="510.333" y="693.667"/>
      <point x="441.667" y="717"/>
      <point x="355" y="717" type="curve" smooth="yes"/>
      <point x="164.314" y="717"/>
      <point x="62" y="608.4"/>
      <point x="62" y="406" type="curve" smooth="yes"/>
      <point x="62" y="302" type="line" smooth="yes"/>
      <point x="62" y="98.919"/>
      <point x="162.979" y="-9"/>
      <point x="353" y="-9" type="curve" smooth="yes"/>
      <point x="440.336" y="-9"/>
      <point x="509.667" y="13.667"/>
      <point x="561" y="61" type="curve"/>
    </contour>
    <contour>
      <point x="357" y="75" type="curve" smooth="yes"/>
      <point x="220.221" y="75"/>
      <point x="156" y="147.209"/>
      <point x="156" y="301" type="curve" smooth="yes"/>
      <point x="156" y="400" type="line" smooth="yes"/>
      <point x="156" y="558.826"/>
      <point x="219.987" y="633"/>
      <point x="357" y="633" type="curve" smooth="yes"/>
      <point x="494.356" y="633"/>
      <point x="559" y="558.436"/>
      <point x="559" y="400" type="curve" smooth="yes"/>
      <point x="559" y="301" type="line" smooth="yes"/>
      <point x="559" y="148.333"/>
      <point x="493.454" y="75"/>
    </contour>
  </outline>
</glyph>
<glyph name="rcommaaccent" format="2">
  <advance width="387"/>
  <unicode hex="0157"/>
  <outline>
    <contour>
      <point x="69" y="0" type="line"/>
      <point x="156" y="0" type="line"/>
      <point x="156" y="302" type="line" smooth="yes"/>
      <point x="156" y="394.604"/>
      <point x="214.614" y="454"/>
      <point x="306" y="454" type="curve"/>
      <point x="326" y="453.333"/>
      <point x="345.333" y="450.333"/>
      <point x="364" y="445" type="curve"/>
      <point x="364" y="528" type="line"/>
      <point x="351.333" y="530"/>
      <point x="337.333" y="531"/>
      <point x="322" y="531" type="curve" smooth="yes"/>
      <point x="246.275" y="531"/>
      <point x="189.898" y="503.993"/>
      <point x="155" y="451" type="curve"/>
      <point x="155" y="524" type="line"/>
      <point x="69" y="524" type="line"/>
    </contour>
    <contour>
      <point x="73" y="-173" type="line"/>
      <point x="156" y="-99" type="line"/>
      <point x="156" y="-30" type="line"/>
      <point x="73" y="-30" type="line"/>
    </contour>
  </outline>
</glyph>
<glyph name="Tbar" format="2">
  <advance width="563"/>
  <unicode hex="0166"/>
  <outline>
    <component base="T"/>
    <contour>
      <point x="126" y="304" type="line"/>
      <point x="439" y="304" type="line"/>
      <point x="439" y="383" type="line"/>
      <point x="126" y="383" type="line"/>
    </contour>
  </outline>
</glyph>
<glyph name="longs" format="2">
  <advance width="321"/>
  <unicode hex="017F"/>
  <anchor x="133" y="760" name="top"/>
  <outline>
    <contour>
      <point x="69" y="0" type="line"/>
      <point x="156" y="0" type="line"/>
      <point x="156" y="459" type="line"/>
      <point x="287" y="459" type="line"/>
      <point x="287" y="524" type="line"/>
      <point x="156" y="524" type="line"/>
      <point x="156" y="564" type="line" smooth="yes"/>
      <point x="156" y="617.326"/>
      <point x="182.256" y="642"/>
      <point x="239" y="642" type="curve" smooth="yes"/>
      <point x="287" y="642" type="line"/>
      <point x="287" y="707" type="line"/>
      <point x="224" y="707" type="line" smooth="yes"/>
      <point x="123.749" y="707"/>
      <point x="69" y="655.43"/>
      <point x="69" y="561" type="curve" smooth="yes"/>
    </contour>
  </outline>
</glyph>
<glyph name="florin" format="2">
  <advance width="479"/>
  <unicode hex="0192"/>
  <outline>
    <contour>
      <point x="12" y="-157" type="line"/>
      <point x="63" y="-157" type="line" smooth="yes"/>
      <point x="175.042" y="-157"/>
      <point x="224.664" y="-109.858"/>
      <point x="243" y="14" type="curve" smooth="yes"/>
      <point x="292" y="345" type="line"/>
      <point x="431" y="345" type="line"/>
      <point x="431" y="424" type="line"/>
      <point x="304" y="424" type="line"/>
      <point x="321" y="535" type="line" smooth="yes"/>
      <point x="331.301" y="602.262"/>
      <point x="355.302" y="625"/>
      <point x="416" y="625" type="curve" smooth="yes"/>
      <point x="468" y="625" type="line"/>
      <point x="468" y="707" type="line"/>
      <point x="412" y="707" type="line" smooth="yes"/>
      <point x="299.795" y="707"/>
      <point x="250.267" y="660.499"/>
      <point x="232" y="538" type="curve" smooth="yes"/>
      <point x="215" y="424" type="line"/>
      <point x="97" y="424" type="line"/>
      <point x="97" y="345" type="line"/>
      <point x="203" y="345" type="line"/>
      <point x="155" y="17" type="line" smooth="yes"/>
      <point x="144.84" y="-52.427"/>
      <point x="121.845" y="-74"/>
      <point x="58" y="-74" type="curve" smooth="yes"/>
      <point x="12" y="-74" type="line"/>
    </contour>
  </outline>
</glyph>
<glyph name="Ocenteredtilde" format="2">
  <advance width="711"/>
  <unicode hex="019F"/>
  <outline>
    <component base="O"/>
    <contour>
      <point x="133" y="313" type="line"/>
      <point x="579" y="313" type="line"/>
      <point x="579" y="396" type="line"/>
      <point x="133" y="396" type="line"/>
    </contour>
  </outline>
</glyph>
<glyph name="kcaron" format="2">
  <advance width="571"/>
  <unicode hex="01E9"/>
  <outline>
    <contour>
      <point x="69" y="0" type="line"/>
      <point x="156" y="0" type="line"/>
      <point x="156" y="155" type="line"/>
      <point x="265" y="264" type="line"/>
      <point x="451" y="0" type="line"/>
      <point x="554" y="0" type="line"/>
      <point x="325" y="324" type="line"/>
      <point x="526" y="524" type="line"/>
      <point x="417" y="524" type="line"/>
      <point x="156" y="259" type="line"/>
      <point x="156" y="707" type="line"/>
      <point x="69" y="707" type="line"/>
    </contour>
    <contour>
      <point x="78" y="767" type="line"/>
      <point x="145" y="767" type="line"/>
      <point x="279" y="916" type="line"/>
      <point x="197" y="916" type="line"/>
      <point x="112" y="824" type="line"/>
      <point x="26" y="916" type="line"/>
      <point x="-56" y="916" type="line"/>
    </contour>
  </outline>
</glyph>
<glyph name="caron" format="2">
  <advance width="512"/>
  <unicode hex="02C7"/>
  <outline>
    <contour>
      <point x="222" y="580" type="line"/>
      <point x="289" y="580" type="line"/>
      <point x="423" y="729" type="line"/>
      <point x="341" y="729" type="line"/>
      <point x="256" y="637" type="line"/>
      <point x="170" y="729" type="line"/>
      <point x="88" y="729" type="line"/>
    </contour>
  </outline>
</glyph>
<glyph name="breve" format="2">
  <advance width="512"/>
  <unicode hex="02D8"/>
  <outline>
    <contour>
      <point x="98" y="727" type="line"/>
      <point x="98" y="709" type="line" smooth="yes"/>
      <point x="98" y="622.045"/>
      <point x="153.119" y="575"/>
      <point x="255" y="575" type="curve" smooth="yes"/>
      <point x="356.881" y="575"/>
      <point x="412" y="622.045"/>
      <point x="412" y="709" type="curve" smooth="yes"/>
      <point x="412" y="727" type="line"/>
      <point x="331" y="727" type="line"/>
      <point x="331" y="709" type="line" smooth="yes"/>
      <point x="331" y="659.171"/>
      <point x="306.176" y="635"/>
      <point x="255" y="635" type="curve" smooth="yes"/>
      <point x="203.824" y="635"/>
      <point x="179" y="659.171"/>
      <point x="179" y="709" type="curve" smooth="yes"/>
      <point x="179" y="727" type="line"/>
    </contour>
  </outline>
</glyph>
<glyph name="ring" format="2">
  <advance width="512"/>
  <unicode hex="02DA"/>
  <outline>
    <contour>
      <point x="159" y="674" type="curve" smooth="yes"/>
      <point x="159" y="618.659"/>
      <point x="200.082" y="578"/>
      <point x="256" y="578" type="curve" smooth="yes"/>
      <point x="310.667" y="578"/>
      <point x="352" y="619.333"/>
      <point x="352" y="674" type="curve" smooth="yes"/>
      <point x="352" y="729.903"/>
      <point x="310.762" y="772"/>
      <point x="256" y="772" type="curve" smooth="yes"/>
      <point x="200.286" y="772"/>
      <point x="159" y="730.289"/>
    </contour>
    <contour>
      <point x="256" y="622" type="curve" smooth="yes"/>
      <point x="225.333" y="622"/>
      <point x="204" y="643.333"/>
      <point x="204" y="674" type="curve" smooth="yes"/>
      <point x="204" y="705.256"/>
      <point x="225.901" y="728"/>
      <point x="256" y="728" type="curve" smooth="yes"/>
      <point x="285.148" y="728"/>
      <point x="307" y="704.863"/>
      <point x="307" y="674" type="curve" smooth="yes"/>
      <point x="307" y="643.594"/>
      <point x="285.821" y="622"/>
    </contour>
  </outline>
</glyph>
<glyph name="tilde" format="2">
  <advance width="512"/>
  <unicode hex="02DC"/>
  <outline>
    <contour>
      <point x="105" y="589" type="line"/>
      <point x="140.471" y="619.844"/>
      <point x="156.991" y="628"/>
      <point x="184" y="628" type="curve" smooth="yes"/>
      <point x="234.113" y="628"/>
      <point x="263.797" y="589"/>
      <point x="322" y="589" type="curve" smooth="yes"/>
      <point x="354.667" y="589"/>
      <point x="382.667" y="601.333"/>
      <point x="406" y="626" type="curve"/>
      <point x="406" y="699" type="line"/>
      <point x="372.319" y="668.381"/>
      <point x="355.342" y="660"/>
      <point x="327" y="660" type="curve" smooth="yes"/>
      <point x="274.452" y="660"/>
      <point x="248.085" y="699"/>
      <point x="189" y="699" type="curve" smooth="yes"/>
      <point x="157.577" y="699"/>
      <point x="132.165" y="687.807"/>
      <point x="105" y="662" type="curve"/>
    </contour>
  </outline>
</glyph>
<glyph name="uni0300" format="2">
  <unicode hex="0300"/>
  <anchor x="0" y="586" name="_top"/>
  <outline>
    <contour>
      <point x="-26" y="586" type="line"/>
      <point x="58" y="586" type="line"/>
      <point x="-60" y="717" type="line"/>
      <point x="-174" y="717" type="line"/>
    </contour>
  </outline>
</glyph>
<glyph name="uni0301" format="2">
  <unicode hex="0301"/>
  <anchor x="0" y="586" name="_top"/>
  <outline>
    <contour>
      <point x="-79.5" y="586" type="line"/>
      <point x="1.5" y="586" type="line"/>
      <point x="139.5" y="717" type="line"/>
      <point x="31.5" y="717" type="line"/>
    </contour>
  </outline>
</glyph>
<glyph name="uni0302" format="2">
  <unicode hex="0302"/>
  <anchor x="0" y="586" name="_top"/>
  <outline>
    <contour>
      <point x="-167.5" y="581" type="line"/>
      <point x="-85.5" y="581" type="line"/>
      <point x="0.5" y="673" type="line"/>
      <point x="85.5" y="581" type="line"/>
      <point x="167.5" y="581" type="line"/>
      <point x="33.5" y="730" type="line"/>
      <point x="-33.5" y="730" type="line"/>
    </contour>
  </outline>
</glyph>
<glyph name="uni0303" format="2">
  <unicode hex="0303"/>
  <anchor x="0" y="586" name="_top"/>
  <outline>
    <contour>
      <point x="-150.5" y="589" type="line"/>
      <point x="-115.029" y="619.844"/>
      <point x="-98.509" y="628"/>
      <point x="-71.5" y="628" type="curve" smooth="yes"/>
      <point x="-21.387" y="628"/>
      <point x="8.297" y="589"/>
      <point x="66.5" y="589" type="curve" smooth="yes"/>
      <point x="99.167" y="589"/>
      <point x="127.167" y="601.333"/>
      <point x="150.5" y="626" type="curve"/>
      <point x="150.5" y="699" type="line"/>
      <point x="116.819" y="668.381"/>
      <point x="99.842" y="660"/>
      <point x="71.5" y="660" type="curve" smooth="yes"/>
      <point x="18.952" y="660"/>
      <point x="-7.415" y="699"/>
      <point x="-66.5" y="699" type="curve" smooth="yes"/>
      <point x="-97.923" y="699"/>
      <point x="-123.335" y="687.807"/>
      <point x="-150.5" y="662" type="curve"/>
    </contour>
  </outline>
</glyph>
<glyph name="uni0304" format="2">
  <unicode hex="0304"/>
  <anchor x="0" y="586" name="_top"/>
  <outline>
    <contour>
      <point x="-156.5" y="604" type="line"/>
      <point x="156.5" y="604" type="line"/>
      <point x="156.5" y="683" type="line"/>
      <point x="-156.5" y="683" type="line"/>
    </contour>
  </outline>
</glyph>
<glyph name="uni030A" format="2">
  <unicode hex="030A"/>
  <anchor x="0" y="578" name="_t.ring"/>
  <outline>
    <contour>
      <point x="-96.5" y="674" type="curve" smooth="yes"/>
      <point x="-96.5" y="618.659"/>
      <point x="-55.418" y="578"/>
      <point x="0.5" y="578" type="curve" smooth="yes"/>
      <point x="55.167" y="578"/>
      <point x="96.5" y="619.333"/>
      <point x="96.5" y="674" type="curve" smooth="yes"/>
      <point x="96.5" y="729.903"/>
      <point x="55.262" y="772"/>
      <point x="0.5" y="772" type="curve" smooth="yes"/>
      <point x="-55.214" y="772"/>
      <point x="-96.5" y="730.289"/>
    </contour>
    <contour>
      <point x="0.5" y="622" type="curve" smooth="yes"/>
      <point x="-30.167" y="622"/>
      <point x="-51.5" y="643.333"/>
      <point x="-51.5" y="674" type="curve" smooth="yes"/>
      <point x="-51.5" y="705.256"/>
      <point x="-29.599" y="728"/>
      <point x="0.5" y="728" type="curve" smooth="yes"/>
      <point x="29.648" y="728"/>
      <point x="51.5" y="704.863"/>
      <point x="51.5" y="674" type="curve" smooth="yes"/>
      <point x="51.5" y="643.594"/>
      <point x="30.321" y="622"/>
    </contour>
  </outline>
</glyph>
<glyph name="uni030F" format="2">
  <unicode hex="030F"/>
  <anchor x="0" y="585" name="_top"/>
  <outline>
    <contour>
      <point x="-91.8392" y="586" type="line"/>
      <point x="-7.83923" y="586" type="line"/>
      <point x="-125.839" y="717" type="line"/>
      <point x="-239.839" y="717" type="line"/>
    </contour>
    <contour>
      <point x="-76.6623" y="717" type="line"/>
      <point x="71.3377" y="586" type="line"/>
      <point x="155.338" y="586" type="line"/>
      <point x="37.3377" y="717" type="line"/>
    </contour>
  </outline>
</glyph>
<glyph name="Njecyr" format="2">
  <advance width="1123"/>
  <unicode hex="040A"/>
  <outline>
    <component base="H"/>
    <contour>
      <point x="586.82" y="0" type="line"/>
      <point x="820" y="0" type="line" smooth="yes"/>
      <point x="978.186" y="0"/>
      <point x="1063" y="73.994"/>
      <point x="1063" y="212" type="curve" smooth="yes"/>
      <point x="1063" y="348.886"/>
      <point x="977.646" y="423"/>
      <point x="820" y="423" type="curve" smooth="yes"/>
      <point x="586.82" y="423" type="line"/>
      <point x="586.82" y="340" type="line"/>
      <point x="822" y="340" type="line" smooth="yes"/>
      <point x="924.281" y="340"/>
      <point x="969" y="301.365"/>
      <point x="969" y="213" type="curve" smooth="yes"/>
      <point x="969" y="121.086"/>
      <point x="924.338" y="83.138"/>
      <point x="816" y="83" type="curve" smooth="yes"/>
      <point x="586.82" y="82.708" type="line"/>
    </contour>
  </outline>
</glyph>
<glyph name="Becyr" format="2">
  <advance width="683"/>
  <unicode hex="0411"/>
  <outline>
    <contour>
      <point x="146.82" y="0" type="line"/>
      <point x="380" y="0" type="line" smooth="yes"/>
      <point x="538.186" y="0"/>
      <point x="623" y="73.994"/>
      <point x="623" y="212" type="curve" smooth="yes"/>
      <point x="623" y="348.886"/>
      <point x="537.646" y="423"/>
      <point x="380" y="423" type="curve" smooth="yes"/>
      <point x="146.82" y="423" type="line"/>
      <point x="146.82" y="340" type="line"/>
      <point x="382" y="340" type="line" smooth="yes"/>
      <point x="484.281" y="340"/>
      <point x="529" y="301.365"/>
      <point x="529" y="213" type="curve" smooth="yes"/>
      <point x="529" y="121.086"/>
      <point x="484.338" y="83.138"/>
      <point x="376" y="83" type="curve" smooth="yes"/>
      <point x="146.82" y="82.708" type="line"/>
    </contour>
    <contour>
      <point x="146.82" y="624" type="line"/>
      <point x="567" y="624" type="line"/>
      <point x="567" y="707" type="line"/>
      <point x="146.82" y="707" type="line"/>
    </contour>
    <contour>
      <point x="74" y="0" type="line"/>
      <point x="167" y="0" type="line"/>
      <point x="167" y="707.09" type="line"/>
      <point x="74" y="707" type="line"/>
    </contour>
  </outline>
</glyph>
<glyph name="Pecyr" format="2">
  <advance width="675"/>
  <unicode hex="041F"/>
  <outline>
    <contour>
      <point x="146.82" y="624" type="line"/>
      <point x="567" y="624" type="line"/>
      <point x="567" y="707" type="line"/>
      <point x="146.82" y="707" type="line"/>
    </contour>
    <contour>
      <point x="74" y="0" type="line"/>
      <point x="167" y="0" type="line"/>
      <point x="167" y="707.09" type="line"/>
      <point x="74" y="707" type="line"/>
    </contour>
    <contour>
      <point x="507.79" y="-0.09" type="line"/>
      <point x="600.79" y="-0.09" type="line"/>
      <point x="600.79" y="707" type="line"/>
      <point x="507.79" y="706.91" type="line"/>
    </contour>
  </outline>
</glyph>
<glyph name="Shacyr" format="2">
  <advance width="836"/>
  <unicode hex="0428"/>
  <anchor x="677" y="695" name="top"/>
  <outline>
    <contour>
      <point x="74.995" y="0" type="line"/>
      <point x="168.995" y="0" type="line"/>
      <point x="168.995" y="707" type="line"/>
      <point x="74.995" y="707" type="line"/>
    </contour>
    <contour>
      <point x="371.24" y="0" type="line"/>
      <point x="465.24" y="0" type="line"/>
      <point x="465.24" y="707" type="line"/>
      <point x="371.24" y="707" type="line"/>
    </contour>
    <contour>
      <point x="667.265" y="0" type="line"/>
      <point x="761.265" y="0" type="line"/>
      <point x="761.265" y="707" type="line"/>
      <point x="667.265" y="707" type="line"/>
    </contour>
    <contour>
      <point x="125.485" y="0" type="line"/>
      <point x="714.665" y="0" type="line"/>
      <point x="714.665" y="83" type="line"/>
      <point x="125.485" y="83" type="line"/>
    </contour>
  </outline>
</glyph>
<glyph name="Shchacyr" format="2">
  <advance width="851"/>
  <unicode hex="0429"/>
  <outline>
    <contour>
      <point x="74.995" y="0" type="line"/>
      <point x="168.995" y="0" type="line"/>
      <point x="168.995" y="707" type="line"/>
      <point x="74.995" y="707" type="line"/>
    </contour>
    <contour>
      <point x="371.24" y="0" type="line"/>
      <point x="465.24" y="0" type="line"/>
      <point x="465.24" y="707" type="line"/>
      <point x="371.24" y="707" type="line"/>
    </contour>
    <contour>
      <point x="667.265" y="0" type="line"/>
      <point x="761.265" y="0" type="line"/>
      <point x="761.265" y="707" type="line"/>
      <point x="667.265" y="707" type="line"/>
    </contour>
    <contour>
      <point x="125.485" y="0" type="line"/>
      <point x="714.665" y="0" type="line"/>
      <point x="714.665" y="83" type="line"/>
      <point x="125.485" y="83" type="line"/>
    </contour>
    <contour>
      <point x="657.041" y="0" type="line"/>
      <point x="747.137" y="0" type="line"/>
      <point x="747.137" y="-170" type="line"/>
      <point x="840.137" y="-170" type="line"/>
      <point x="840.137" y="83" type="line"/>
      <point x="657.041" y="83" type="line"/>
    </contour>
  </outline>
</glyph>
<glyph name="Hardcyr" format="2">
  <advance width="813"/>
  <unicode hex="042A"/>
  <outline>
    <contour>
      <point x="276.82" y="0" type="line"/>
      <point x="510" y="0" type="line" smooth="yes"/>
      <point x="668.186" y="0"/>
      <point x="753" y="73.994"/>
      <point x="753" y="212" type="curve" smooth="yes"/>
      <point x="753" y="348.886"/>
      <point x="667.646" y="423"/>
      <point x="510" y="423" type="curve" smooth="yes"/>
      <point x="276.82" y="423" type="line"/>
      <point x="276.82" y="340" type="line"/>
      <point x="512" y="340" type="line" smooth="yes"/>
      <point x="614.281" y="340"/>
      <point x="659" y="301.365"/>
      <point x="659" y="213" type="curve" smooth="yes"/>
      <point x="659" y="121.086"/>
      <point x="614.338" y="83.138"/>
      <point x="506" y="83" type="curve" smooth="yes"/>
      <point x="276.82" y="82.708" type="line"/>
    </contour>
    <contour>
      <point x="204" y="0" type="line"/>
      <point x="297" y="-0.032" type="line"/>
      <point x="297" y="707" type="line"/>
      <point x="204" y="707" type="line"/>
    </contour>
    <contour>
      <point x="-0.131" y="624" type="line"/>
      <point x="250.5" y="624" type="line"/>
      <point x="250.5" y="707" type="line"/>
      <point x="-0.131" y="707" type="line"/>
    </contour>
  </outline>
</glyph>
<glyph name="Ereversedcyr" format="2">
  <advance width="694"/>
  <unicode hex="042D"/>
  <anchor x="336" y="760" name="top"/>
  <outline>
    <component base="C" xScale="-1" xOffset="696"/>
    <contour>
      <point x="264.331" y="319" type="line"/>
      <point x="591.214" y="319" type="line"/>
      <point x="591.214" y="401" type="line"/>
      <point x="264.331" y="401" type="line"/>
    </contour>
  </outline>
</glyph>
<glyph name="decyr" format="2">
  <advance width="573"/>
  <unicode hex="0434"/>
  <outline>
    <contour>
      <point x="465.87" y="-170" type="line"/>
      <point x="552.87" y="-170" type="line"/>
      <point x="552.87" y="78.957" type="line"/>
      <point x="445.87" y="78.957" type="line"/>
      <point x="445.87" y="-0.485" type="line"/>
      <point x="465.87" y="-0.485" type="line"/>
    </contour>
    <contour>
      <point x="20" y="-170" type="line"/>
      <point x="107" y="-170" type="line"/>
      <point x="107" y="79" type="line"/>
      <point x="20" y="79" type="line"/>
    </contour>
    <contour>
      <point x="411" y="0" type="line"/>
      <point x="498" y="0" type="line"/>
      <point x="498" y="524" type="line"/>
      <point x="411" y="524" type="line"/>
    </contour>
    <contour>
      <point x="49.047" y="78.656" type="curve"/>
      <point x="64.689" y="0" type="line"/>
      <point x="150.237" y="0"/>
      <point x="183.291" y="72.305"/>
      <point x="188.38" y="140.498" type="curve" smooth="yes"/>
      <point x="217" y="524" type="line"/>
      <point x="130" y="524" type="line"/>
      <point x="99.268" y="161.365" type="line" smooth="yes"/>
      <point x="93.337" y="91.379"/>
      <point x="68.296" y="78.656"/>
    </contour>
    <contour>
      <point x="24.691" y="-0.233" type="line"/>
      <point x="430.972" y="-0.344" type="line"/>
      <point x="430.972" y="78.656" type="line"/>
      <point x="24.691" y="78.656" type="line"/>
    </contour>
    <contour>
      <point x="157" y="444.561" type="line"/>
      <point x="430.972" y="445.449" type="line"/>
      <point x="430.972" y="524.449" type="line"/>
      <point x="157" y="524.449" type="line"/>
    </contour>
  </outline>
</glyph>
<glyph name="icyr" format="2">
  <advance width="615"/>
  <unicode hex="0438"/>
  <anchor x="302" y="586" name="top"/>
  <outline>
    <contour>
      <point x="459" y="0" type="line"/>
      <point x="546" y="0" type="line"/>
      <point x="546" y="524" type="line"/>
      <point x="471.429" y="524" type="line"/>
      <point x="464.75" y="481.177"/>
      <point x="459" y="414"/>
      <point x="459" y="374" type="curve" smooth="yes"/>
    </contour>
    <contour>
      <point x="69" y="0" type="line"/>
      <point x="143.571" y="0" type="line"/>
      <point x="151.029" y="40"/>
      <point x="156" y="110"/>
      <point x="156" y="150" type="curve" smooth="yes"/>
      <point x="156" y="524" type="line"/>
      <point x="69" y="524" type="line"/>
    </contour>
    <contour>
      <point x="122" y="0" type="line"/>
      <point x="166" y="0" type="line"/>
      <point x="436" y="374" type="line" smooth="yes"/>
      <point x="444.392" y="385.625"/>
      <point x="453" y="404"/>
      <point x="459" y="420" type="curve"/>
      <point x="493" y="420" type="line"/>
      <point x="493" y="524" type="line"/>
      <point x="449" y="524" type="line"/>
      <point x="179" y="150" type="line" smooth="yes"/>
      <point x="171.689" y="139.873"/>
      <point x="162" y="118"/>
      <point x="156" y="104" type="curve"/>
      <point x="122" y="104" type="line"/>
    </contour>
  </outline>
</glyph>
<glyph name="elcyr" format="2">
  <advance width="529"/>
  <unicode hex="043B"/>
  <outline>
    <contour>
      <point x="373" y="0" type="line"/>
      <point x="460" y="0" type="line"/>
      <point x="460" y="524" type="line"/>
      <point x="373" y="524" type="line"/>
    </contour>
    <contour>
      <point x="119" y="444.561" type="line"/>
      <point x="392.972" y="445.449" type="line"/>
      <point x="392.972" y="524.449" type="line"/>
      <point x="119" y="524.449" type="line"/>
    </contour>
    <contour>
      <point x="11.047" y="78.656" type="curve"/>
      <point x="10.69" y="0" type="line"/>
      <point x="96.229" y="0"/>
      <point x="143.439" y="47.483"/>
      <point x="150.38" y="140.498" type="curve" smooth="yes"/>
      <point x="179" y="524" type="line"/>
      <point x="92" y="524" type="line"/>
      <point x="61.268" y="161.365" type="line" smooth="yes"/>
      <point x="55.337" y="91.379"/>
      <point x="30.296" y="78.656"/>
    </contour>
  </outline>
</glyph>
<glyph name="tecyr" format="2">
  <advance width="407"/>
  <unicode hex="0442"/>
  <anchor x="204" y="586" name="top"/>
  <outline>
    <contour>
      <point x="23.501" y="445.112" type="line"/>
      <point x="383.501" y="445" type="line"/>
      <point x="383.501" y="524" type="line"/>
      <point x="23.501" y="524" type="line"/>
    </contour>
    <contour>
      <point x="160" y="0" type="line"/>
      <point x="247" y="0" type="line"/>
      <point x="247" y="524.02" type="line"/>
      <point x="160" y="524" type="line"/>
    </contour>
  </outline>
</glyph>
<glyph name="tsecyr" format="2">
  <advance width="582"/>
  <unicode hex="0446"/>
  <outline>
    <contour>
      <point x="430" y="0" type="line"/>
      <point x="517" y="0" type="line"/>
      <point x="517" y="524" type="line"/>
      <point x="430" y="524" type="line"/>
    </contour>
    <contour>
      <point x="69" y="0" type="line"/>
      <point x="156" y="0" type="line"/>
      <point x="156" y="524" type="line"/>
      <point x="69" y="524" type="line"/>
    </contour>
    <contour>
      <point x="136" y="-0.233" type="line"/>
      <point x="449.972" y="-0.344" type="line"/>
      <point x="449.972" y="78.656" type="line"/>
      <point x="136" y="78.656" type="line"/>
    </contour>
    <contour>
      <point x="484.87" y="-170" type="line"/>
      <point x="571.87" y="-170" type="line"/>
      <point x="571.87" y="78.957" type="line"/>
      <point x="464.87" y="78.957" type="line"/>
      <point x="464.87" y="-0.485" type="line"/>
      <point x="484.87" y="-0.485" type="line"/>
    </contour>
  </outline>
</glyph>
<glyph name="ereversedcyr" format="2">
  <advance width="566"/>
  <unicode hex="044D"/>
  <anchor x="273" y="586" name="top"/>
  <outline>
    <component base="c" xScale="-1" xOffset="566"/>
    <contour>
      <point x="238.769" y="243" type="line"/>
      <point x="450" y="243" type="line"/>
      <point x="450" y="322" type="line"/>
      <point x="238.769" y="322" type="line"/>
    </contour>
  </outline>
</glyph>
<glyph name="yacyr" format="2">
  <advance width="592"/>
  <unicode hex="044F"/>
  <anchor x="315" y="586" name="top"/>
  <outline>
    <contour>
      <point x="456" y="163" type="line"/>
      <point x="456" y="242" type="line"/>
      <point x="266.112" y="242" type="line" smooth="yes"/>
      <point x="207.951" y="242"/>
      <point x="162" y="285.706"/>
      <point x="162" y="341.024" type="curve" smooth="yes"/>
      <point x="162" y="399.815"/>
      <point x="198.07" y="445"/>
      <point x="245" y="445" type="curve" smooth="yes"/>
      <point x="456" y="445" type="line"/>
      <point x="456" y="524" type="line"/>
      <point x="237" y="524" type="line" smooth="yes"/>
      <point x="138.081" y="524"/>
      <point x="75" y="454.365"/>
      <point x="75" y="345.169" type="curve" smooth="yes"/>
      <point x="75" y="244.148"/>
      <point x="125.565" y="186.802"/>
      <point x="235.8" y="162.804" type="curve"/>
    </contour>
    <contour>
      <point x="523" y="524" type="line"/>
      <point x="436" y="524" type="line"/>
      <point x="436" y="0" type="line"/>
      <point x="523" y="0" type="line"/>
    </contour>
    <contour>
      <point x="153.888" y="0" type="line"/>
      <point x="263.601" y="213.826" type="line"/>
      <point x="188.04" y="224.497" type="line"/>
      <point x="68.59" y="0" type="line"/>
    </contour>
  </outline>
</glyph>
<glyph name="ljecyr" format="2">
  <advance width="840"/>
  <unicode hex="0459"/>
  <outline>
    <contour>
      <point x="373" y="0" type="line"/>
      <point x="460" y="0" type="line"/>
      <point x="460" y="524" type="line"/>
      <point x="373" y="524" type="line"/>
    </contour>
    <contour>
      <point x="119" y="444.561" type="line"/>
      <point x="392.972" y="445.449" type="line"/>
      <point x="392.972" y="524.449" type="line"/>
      <point x="119" y="524.449" type="line"/>
    </contour>
    <contour>
      <point x="11.047" y="78.656" type="curve"/>
      <point x="10.69" y="0" type="line"/>
      <point x="96.229" y="0"/>
      <point x="143.439" y="47.483"/>
      <point x="150.38" y="140.498" type="curve" smooth="yes"/>
      <point x="179" y="524" type="line"/>
      <point x="92" y="524" type="line"/>
      <point x="61.268" y="161.365" type="line" smooth="yes"/>
      <point x="55.337" y="91.379"/>
      <point x="30.296" y="78.656"/>
    </contour>
    <contour>
      <point x="406" y="0" type="line"/>
      <point x="638" y="0" type="line" smooth="yes"/>
      <point x="727" y="0"/>
      <point x="787" y="65"/>
      <point x="787" y="161" type="curve" smooth="yes"/>
      <point x="787" y="243.826"/>
      <point x="754.287" y="322"/>
      <point x="644" y="322" type="curve" smooth="yes"/>
      <point x="406" y="322" type="line"/>
      <point x="406" y="243" type="line"/>
      <point x="633" y="243" type="line" smooth="yes"/>
      <point x="677" y="243"/>
      <point x="700" y="201"/>
      <point x="700" y="168" type="curve" smooth="yes"/>
      <point x="700" y="113"/>
      <point x="670" y="79"/>
      <point x="623" y="79" type="curve" smooth="yes"/>
      <point x="406" y="79" type="line"/>
    </contour>
  </outline>
</glyph>
<glyph name="quoteleft" format="2">
  <advance width="181"/>
  <unicode hex="2018"/>
  <outline>
    <contour>
      <point x="49" y="487" type="line"/>
      <point x="132" y="487" type="line"/>
      <point x="132" y="744" type="line"/>
      <point x="49" y="670" type="line"/>
    </contour>
  </outline>
</glyph>
<glyph name="quoteright" format="2">
  <advance width="181"/>
  <unicode hex="2019"/>
  <anchor x="132" y="707" name="_dot"/>
  <outline>
    <contour>
      <point x="49" y="450" type="line"/>
      <point x="132" y="524" type="line"/>
      <point x="132" y="707" type="line"/>
      <point x="49" y="707" type="line"/>
    </contour>
  </outline>
</glyph>
<glyph name="quotedblleft" format="2">
  <advance width="346"/>
  <unicode hex="201C"/>
  <outline>
    <contour>
      <point x="48" y="487" type="line"/>
      <point x="132" y="487" type="line"/>
      <point x="132" y="744" type="line"/>
      <point x="48" y="670" type="line"/>
    </contour>
    <contour>
      <point x="213" y="487" type="line"/>
      <point x="297" y="487" type="line"/>
      <point x="297" y="744" type="line"/>
      <point x="213" y="670" type="line"/>
    </contour>
  </outline>
</glyph>
<glyph name="quotedblright" format="2">
  <advance width="346"/>
  <unicode hex="201D"/>
  <outline>
    <contour>
      <point x="49" y="450" type="line"/>
      <point x="132" y="524" type="line"/>
      <point x="132" y="707" type="line"/>
      <point x="49" y="707" type="line"/>
    </contour>
    <contour>
      <point x="214" y="450" type="line"/>
      <point x="298" y="524" type="line"/>
      <point x="298" y="707" type="line"/>
      <point x="214" y="707" type="line"/>
    </contour>
  </outline>
</glyph>
<glyph name="dagger" format="2">
  <advance width="600"/>
  <unicode hex="2020"/>
  <outline>
    <contour>
      <point x="254" y="-157" type="line"/>
      <point x="347" y="-157" type="line"/>
      <point x="347" y="384" type="line"/>
      <point x="531" y="384" type="line"/>
      <point x="531" y="467" type="line"/>
      <point x="347" y="467" type="line"/>
      <point x="347" y="707" type="line"/>
      <point x="254" y="707" type="line"/>
      <point x="254" y="467" type="line"/>
      <point x="69" y="467" type="line"/>
      <point x="69" y="384" type="line"/>
      <point x="254" y="384" type="line"/>
    </contour>
  </outline>
</glyph>
<glyph name="daggerdbl" format="2">
  <advance width="600"/>
  <unicode hex="2021"/>
  <outline>
    <contour>
      <point x="254" y="-157" type="line"/>
      <point x="347" y="-157" type="line"/>
      <point x="347" y="82" type="line"/>
      <point x="531" y="82" type="line"/>
      <point x="531" y="165" type="line"/>
      <point x="347" y="165" type="line"/>
      <point x="347" y="388" type="line"/>
      <point x="531" y="388" type="line"/>
      <point x="531" y="471" type="line"/>
      <point x="347" y="471" type="line"/>
      <point x="347" y="707" type="line"/>
      <point x="254" y="707" type="line"/>
      <point x="254" y="471" type="line"/>
      <point x="69" y="471" type="line"/>
      <point x="69" y="388" type="line"/>
      <point x="254" y="388" type="line"/>
      <point x="254" y="165" type="line"/>
      <point x="69" y="165" type="line"/>
      <point x="69" y="82" type="line"/>
      <point x="254" y="82" type="line"/>
    </contour>
  </outline>
</glyph>
<glyph name="guilsinglleft" format="2">
  <advance width="330"/>
  <unicode hex="2039"/>
  <outline>
    <contour>
      <point x="24" y="270" type="line"/>
      <point x="262" y="60" type="line"/>
      <point x="262" y="154" type="line"/>
      <point x="127" y="270" type="line"/>
      <point x="262" y="387" type="line"/>
      <point x="262" y="480" type="line"/>
    </contour>
  </outline>
</glyph>
<glyph name="guilsinglright" format="2">
  <advance width="343"/>
  <unicode hex="203A"/>
  <outline>
    <contour>
      <point x="69" y="60" type="line"/>
      <point x="308" y="270" type="line"/>
      <point x="69" y="480" type="line"/>
      <point x="69" y="387" type="line"/>
      <point x="204" y="270" type="line"/>
      <point x="69" y="154" type="line"/>
    </contour>
  </outline>
</glyph>
<glyph name="fraction" format="2">
  <advance width="532"/>
  <unicode hex="2044"/>
  <outline>
    <contour>
      <point x="-47" y="0" type="line"/>
      <point x="28" y="0" type="line"/>
      <point x="485" y="708" type="line"/>
      <point x="410" y="708" type="line"/>
    </contour>
  </outline>
</glyph>
<glyph name="trademark" format="2">
  <advance width="923"/>
  <unicode hex="2122"/>
  <outline>
    <contour>
      <point x="172" y="303" type="line"/>
      <point x="243" y="303" type="line"/>
      <point x="243" y="644" type="line"/>
      <point x="378" y="644" type="line"/>
      <point x="378" y="707" type="line"/>
      <point x="37" y="707" type="line"/>
      <point x="37" y="644" type="line"/>
      <point x="172" y="644" type="line"/>
    </contour>
    <contour>
      <point x="443" y="303" type="line"/>
      <point x="509" y="303" type="line"/>
      <point x="509" y="566" type="line"/>
      <point x="512" y="566" type="line"/>
      <point x="623" y="362" type="line"/>
      <point x="672" y="362" type="line"/>
      <point x="780" y="566" type="line"/>
      <point x="783" y="566" type="line"/>
      <point x="783" y="303" type="line"/>
      <point x="849" y="303" type="line"/>
      <point x="849" y="707" type="line"/>
      <point x="784" y="707" type="line"/>
      <point x="650" y="446" type="line"/>
      <point x="646" y="446" type="line"/>
      <point x="508" y="707" type="line"/>
      <point x="443" y="707" type="line"/>
    </contour>
  </outline>
</glyph>
<glyph name="fi" format="2">
  <advance width="574"/>
  <unicode hex="FB01"/>
  <outline>
    <contour>
      <point x="120" y="0" type="line"/>
      <point x="207" y="0" type="line"/>
      <point x="207" y="459" type="line"/>
      <point x="338" y="459" type="line"/>
      <point x="338" y="524" type="line"/>
      <point x="207" y="524" type="line"/>
      <point x="207" y="564" type="line" smooth="yes"/>
      <point x="207" y="617.326"/>
      <point x="233.256" y="642"/>
      <point x="290" y="642" type="curve" smooth="yes"/>
      <point x="338" y="642" type="line"/>
      <point x="338" y="707" type="line"/>
      <point x="275" y="707" type="line" smooth="yes"/>
      <point x="174.749" y="707"/>
      <point x="120" y="655.43"/>
      <point x="120" y="561" type="curve" smooth="yes"/>
      <point x="120" y="524" type="line"/>
      <point x="46" y="524" type="line"/>
      <point x="46" y="459" type="line"/>
      <point x="120" y="459" type="line"/>
    </contour>
    <contour>
      <point x="410" y="0" type="line"/>
      <point x="497" y="0" type="line"/>
      <point x="497" y="524" type="line"/>
      <point x="410" y="524" type="line"/>
    </contour>
    <contour>
      <point x="410" y="611" type="line"/>
      <point x="497" y="611" type="line"/>
      <point x="497" y="706" type="line"/>
      <point x="410" y="706" type="line"/>
    </contour>
  </outline>
</glyph>
<glyph name="fl" format="2">
  <advance width="643"/>
  <unicode hex="FB02"/>
  <outline>
    <contour>
      <point x="561" y="0" type="line"/>
      <point x="561" y="62" type="line"/>
      <point x="546" y="62" type="line" smooth="yes"/>
      <point x="497.333" y="62"/>
      <point x="473" y="89"/>
      <point x="473" y="143" type="curve" smooth="yes"/>
      <point x="473" y="707" type="line"/>
      <point x="402" y="707" type="line"/>
      <point x="402" y="140" type="line" smooth="yes"/>
      <point x="402" y="49.7"/>
      <point x="452.41" y="0"/>
      <point x="544" y="0" type="curve" smooth="yes"/>
    </contour>
    <contour>
      <point x="120" y="0" type="line"/>
      <point x="207" y="0" type="line"/>
      <point x="207" y="459" type="line"/>
      <point x="338" y="459" type="line"/>
      <point x="338" y="524" type="line"/>
      <point x="207" y="524" type="line"/>
      <point x="207" y="564" type="line" smooth="yes"/>
      <point x="207" y="617.326"/>
      <point x="233.256" y="642"/>
      <point x="290" y="642" type="curve" smooth="yes"/>
      <point x="338" y="642" type="line"/>
      <point x="338" y="707" type="line"/>
      <point x="275" y="707" type="line" smooth="yes"/>
      <point x="174.749" y="707"/>
      <point x="120" y="655.43"/>
      <point x="120" y="561" type="curve" smooth="yes"/>
      <point x="120" y="524" type="line"/>
      <point x="46" y="524" type="line"/>
      <point x="46" y="459" type="line"/>
      <point x="120" y="459" type="line"/>
    </contour>
  </outline>
</glyph>
<glyph name="five.osf" format="2">
  <advance width="548"/>
  <outline>
    <contour>
      <point x="61" y="11" type="line"/>
      <point x="61" y="3" type="line" smooth="yes"/>
      <point x="61" y="-106.052"/>
      <point x="142.28" y="-176"/>
      <point x="269" y="-176" type="curve" smooth="yes"/>
      <point x="406.963" y="-176"/>
      <point x="487" y="-96.697"/>
      <point x="487" y="40" type="curve" smooth="yes"/>
      <point x="487" y="76" type="line" smooth="yes"/>
      <point x="487" y="212.993"/>
      <point x="415.309" y="292"/>
      <point x="291" y="292" type="curve" smooth="yes"/>
      <point x="237.98" y="292"/>
      <point x="188.19" y="273.19"/>
      <point x="156" y="241" type="curve"/>
      <point x="156" y="440" type="line"/>
      <point x="468" y="440" type="line"/>
      <point x="468" y="523" type="line"/>
      <point x="73" y="523" type="line"/>
      <point x="73" y="141" type="line"/>
      <point x="163" y="141" type="line"/>
      <point x="181.687" y="186.382"/>
      <point x="220.724" y="211"/>
      <point x="274" y="211" type="curve" smooth="yes"/>
      <point x="354.043" y="211"/>
      <point x="395" y="163.95"/>
      <point x="395" y="72" type="curve" smooth="yes"/>
      <point x="395" y="44" type="line" smooth="yes"/>
      <point x="395" y="-48"/>
      <point x="353.667" y="-94"/>
      <point x="271" y="-94" type="curve" smooth="yes"/>
      <point x="197.267" y="-94"/>
      <point x="151" y="-55.444"/>
      <point x="151" y="6" type="curve" smooth="yes"/>
      <point x="151" y="11" type="line"/>
    </contour>
  </outline>
</glyph>
<glyph name="four.dnom" format="2">
  <advance width="391"/>
  <outline>
    <contour>
      <point x="40" y="77" type="line"/>
      <point x="241" y="77" type="line"/>
      <point x="241" y="0" type="line"/>
      <point x="311" y="0" type="line"/>
      <point x="311" y="77" type="line"/>
      <point x="351" y="77" type="line"/>
      <point x="351" y="137" type="line"/>
      <point x="311" y="137" type="line"/>
      <point x="311" y="238" type="line"/>
      <point x="241" y="238" type="line"/>
      <point x="241" y="137" type="line"/>
      <point x="111" y="137" type="line"/>
      <point x="229" y="427" type="line"/>
      <point x="160" y="427" type="line"/>
      <point x="40" y="137" type="line"/>
    </contour>
  </outline>
</glyph>
<glyph name="four.numr" format="2">
  <advance width="391"/>
  <outline>
    <contour>
      <point x="40" y="357" type="line"/>
      <point x="241" y="357" type="line"/>
      <point x="241" y="280" type="line"/>
      <point x="311" y="280" type="line"/>
      <point x="311" y="357" type="line"/>
      <point x="351" y="357" type="line"/>
      <point x="351" y="417" type="line"/>
      <point x="311" y="417" type="line"/>
      <point x="311" y="518" type="line"/>
      <point x="241" y="518" type="line"/>
      <point x="241" y="417" type="line"/>
      <point x="111" y="417" type="line"/>
      <point x="229" y="707" type="line"/>
      <point x="160" y="707" type="line"/>
      <point x="40" y="417" type="line"/>
    </contour>
  </outline>
</glyph>
<glyph name="four.osf" format="2">
  <advance width="577"/>
  <outline>
    <contour>
      <point x="44" y="0" type="line"/>
      <point x="356" y="0" type="line"/>
      <point x="356" y="-166" type="line"/>
      <point x="450" y="-166" type="line"/>
      <point x="450" y="0" type="line"/>
      <point x="535" y="0" type="line"/>
      <point x="535" y="83" type="line"/>
      <point x="450" y="83" type="line"/>
      <point x="450" y="231" type="line"/>
      <point x="356" y="231" type="line"/>
      <point x="356" y="83" type="line"/>
      <point x="139" y="83" type="line"/>
      <point x="380" y="541" type="line"/>
      <point x="285" y="541" type="line"/>
      <point x="44" y="83" type="line"/>
    </contour>
  </outline>
</glyph>
<glyph name="four.tosf" format="2">
  <advance width="562"/>
  <outline>
    <contour>
      <point x="52" y="0" type="line"/>
      <point x="364" y="0" type="line"/>
      <point x="364" y="-166" type="line"/>
      <point x="458" y="-166" type="line"/>
      <point x="458" y="0" type="line"/>
      <point x="543" y="0" type="line"/>
      <point x="543" y="83" type="line"/>
      <point x="458" y="83" type="line"/>
      <point x="458" y="231" type="line"/>
      <point x="364" y="231" type="line"/>
      <point x="364" y="83" type="line"/>
      <point x="147" y="83" type="line"/>
      <point x="388" y="541" type="line"/>
      <point x="293" y="541" type="line"/>
      <point x="52" y="83" type="line"/>
    </contour>
  </outline>
</glyph>
<glyph name="hardcyr.loclBGR" format="2">
  <advance width="680"/>
  <outline>
    <contour>
      <point x="179" y="202.983" type="line"/>
      <point x="266" y="202.983" type="line"/>
      <point x="266" y="524" type="line"/>
      <point x="179" y="524" type="line"/>
    </contour>
    <contour>
      <point x="225" y="445" type="line"/>
      <point x="225" y="524" type="line"/>
      <point x="0" y="524" type="line"/>
      <point x="0" y="445.112" type="line"/>
    </contour>
    <contour>
      <point x="179" y="202.983" type="line"/>
      <point x="179" y="74.763"/>
      <point x="259.886" y="-9"/>
      <point x="393.381" y="-9" type="curve" smooth="yes"/>
      <point x="534.47" y="-9"/>
      <point x="627" y="74.175"/>
      <point x="627" y="201" type="curve" smooth="yes"/>
      <point x="627" y="327.545"/>
      <point x="549.295" y="411"/>
      <point x="431.469" y="411" type="curve" smooth="yes"/>
      <point x="368.199" y="411"/>
      <point x="324.54" y="406.667"/>
      <point x="246" y="372" type="curve"/>
      <point x="246" y="293" type="line"/>
      <point x="320.91" y="327.667"/>
      <point x="360.829" y="332"/>
      <point x="420.469" y="332" type="curve" smooth="yes"/>
      <point x="491.283" y="332"/>
      <point x="540" y="275.565"/>
      <point x="540" y="193.533" type="curve" smooth="yes"/>
      <point x="540" y="117.245"/>
      <point x="483.261" y="68"/>
      <point x="395.364" y="68" type="curve" smooth="yes"/>
      <point x="318.892" y="68"/>
      <point x="266" y="108.674"/>
      <point x="266" y="202.983" type="curve"/>
    </contour>
  </outline>
</glyph>
<glyph name="icyr.loclBGR" format="2">
  <advance width="586"/>
  <anchor x="293" y="586" name="top"/>
  <outline>
    <contour>
      <point x="430" y="242.741" type="line"/>
      <point x="430" y="217" type="line" smooth="yes"/>
      <point x="430" y="117.486"/>
      <point x="386.38" y="71"/>
      <point x="293" y="71" type="curve" smooth="yes"/>
      <point x="201.99" y="71"/>
      <point x="156" y="120.011"/>
      <point x="156" y="217" type="curve" smooth="yes"/>
      <point x="156" y="524" type="line"/>
      <point x="69" y="524" type="line"/>
      <point x="69" y="208" type="line" smooth="yes"/>
      <point x="69" y="69.162"/>
      <point x="137.416" y="-7"/>
      <point x="262.134" y="-7" type="curve" smooth="yes"/>
      <point x="387.489" y="-7"/>
      <point x="457" y="69.693"/>
      <point x="457" y="208" type="curve" smooth="yes"/>
      <point x="457" y="242.741" type="line"/>
    </contour>
    <contour>
      <point x="434" y="0" type="line"/>
      <point x="517" y="0" type="line"/>
      <point x="517" y="524" type="line"/>
      <point x="430" y="524" type="line"/>
      <point x="430" y="84.148" type="line"/>
      <point x="434" y="84.148" type="line"/>
    </contour>
  </outline>
</glyph>
<glyph name="kacyr.loclBGR" format="2">
  <advance width="571"/>
  <outline>
    <contour>
      <point x="69" y="0" type="line"/>
      <point x="156" y="0" type="line"/>
      <point x="156" y="707" type="line"/>
      <point x="69" y="707" type="line"/>
    </contour>
    <contour>
      <point x="193.58" y="277" type="line"/>
      <point x="298.35" y="277" type="line"/>
      <point x="546" y="524" type="line"/>
      <point x="437" y="524" type="line"/>
    </contour>
    <contour>
      <point x="451" y="0" type="line"/>
      <point x="554" y="0" type="line"/>
      <point x="316" y="337" type="line"/>
      <point x="256" y="277" type="line"/>
    </contour>
    <contour>
      <point x="136" y="243" type="line"/>
      <point x="311.306" y="243" type="line"/>
      <point x="311.306" y="322" type="line"/>
      <point x="136" y="322" type="line"/>
    </contour>
  </outline>
</glyph>
<glyph name="nine.osf" format="2">
  <advance width="565"/>
  <outline>
    <contour>
      <point x="167" y="-166" type="line"/>
      <point x="267" y="-166" type="line"/>
      <point x="441" y="105" type="line" smooth="yes"/>
      <point x="491.19" y="183.17"/>
      <point x="510" y="237.145"/>
      <point x="510" y="303" type="curve" smooth="yes"/>
      <point x="510" y="326" type="line" smooth="yes"/>
      <point x="510" y="452.165"/>
      <point x="421.354" y="533"/>
      <point x="283" y="533" type="curve" smooth="yes"/>
      <point x="143.457" y="533"/>
      <point x="55" y="451.138"/>
      <point x="55" y="322" type="curve" smooth="yes"/>
      <point x="55" y="297" type="line" smooth="yes"/>
      <point x="55" y="180.961"/>
      <point x="141.386" y="95"/>
      <point x="258" y="95" type="curve" smooth="yes"/>
      <point x="295.333" y="95"/>
      <point x="325" y="101"/>
      <point x="347" y="113" type="curve"/>
    </contour>
    <contour>
      <point x="147" y="301" type="curve" smooth="yes"/>
      <point x="147" y="325" type="line" smooth="yes"/>
      <point x="147" y="402.265"/>
      <point x="200.26" y="452"/>
      <point x="283" y="452" type="curve" smooth="yes"/>
      <point x="365.762" y="452"/>
      <point x="418" y="403.244"/>
      <point x="418" y="326" type="curve" smooth="yes"/>
      <point x="418" y="302" type="line" smooth="yes"/>
      <point x="418" y="224.098"/>
      <point x="366.848" y="176"/>
      <point x="284" y="176" type="curve" smooth="yes"/>
      <point x="200.352" y="176"/>
      <point x="147" y="224.679"/>
    </contour>
  </outline>
</glyph>
<glyph name="one.dnom" format="2">
  <advance width="240"/>
  <outline>
    <contour>
      <point x="99.911" y="0" type="line"/>
      <point x="179.911" y="0" type="line"/>
      <point x="179.911" y="427" type="line"/>
      <point x="99.911" y="427" type="line"/>
      <point x="12.911" y="374" type="line"/>
      <point x="12.911" y="291" type="line"/>
      <point x="99.911" y="345" type="line"/>
    </contour>
  </outline>
</glyph>
<glyph name="one.numr" format="2">
  <advance width="240"/>
  <outline>
    <contour>
      <point x="99.026" y="279.986" type="line"/>
      <point x="179.026" y="279.986" type="line"/>
      <point x="179.026" y="706.986" type="line"/>
      <point x="99.026" y="706.986" type="line"/>
      <point x="12.026" y="653.986" type="line"/>
      <point x="12.026" y="570.986" type="line"/>
      <point x="99.026" y="624.986" type="line"/>
    </contour>
  </outline>
</glyph>
<glyph name="one.sups" format="2">
  <advance width="240"/>
  <outline>
    <contour>
      <point x="99.911" y="440" type="line"/>
      <point x="179.911" y="440" type="line"/>
      <point x="179.911" y="867" type="line"/>
      <point x="99.911" y="867" type="line"/>
      <point x="12.911" y="814" type="line"/>
      <point x="12.911" y="731" type="line"/>
      <point x="99.911" y="785" type="line"/>
    </contour>
  </outline>
</glyph>
<glyph name="sacute.loclPLK" format="2">
  <advance width="529"/>
  <outline>
    <component base="s"/>
    <contour>
      <point x="221" y="586" type="line"/>
      <point x="303" y="586" type="line"/>
      <point x="369" y="717" type="line"/>
      <point x="260" y="717" type="line"/>
    </contour>
  </outline>
</glyph>
<glyph name="seven.osf" format="2">
  <advance width="500"/>
  <outline>
    <contour>
      <point x="102" y="-166" type="line"/>
      <point x="197" y="-166" type="line"/>
      <point x="465" y="440" type="line"/>
      <point x="465" y="523" type="line"/>
      <point x="38" y="523" type="line"/>
      <point x="38" y="440" type="line"/>
      <point x="372" y="440" type="line"/>
    </contour>
  </outline>
</glyph>
<glyph name="shacyr.loclBGR" format="2">
  <advance width="931"/>
  <outline>
    <contour>
      <point x="863" y="524" type="line"/>
      <point x="776" y="524" type="line"/>
      <point x="776" y="217" type="line" smooth="yes"/>
      <point x="776" y="127.056"/>
      <point x="720.712" y="71"/>
      <point x="632" y="71" type="curve" smooth="yes"/>
      <point x="552.945" y="71"/>
      <point x="509" y="118.875"/>
      <point x="509" y="205" type="curve" smooth="yes"/>
      <point x="509" y="524" type="line"/>
      <point x="421" y="524" type="line"/>
      <point x="421" y="208" type="line" smooth="yes"/>
      <point x="421" y="119.657"/>
      <point x="371.988" y="71"/>
      <point x="283" y="71" type="curve" smooth="yes"/>
      <point x="198.649" y="71"/>
      <point x="155" y="117.036"/>
      <point x="155" y="206" type="curve" smooth="yes"/>
      <point x="155" y="524" type="line"/>
      <point x="68" y="524" type="line"/>
      <point x="68" y="194" type="line" smooth="yes"/>
      <point x="68" y="66.694"/>
      <point x="139.967" y="-6"/>
      <point x="266" y="-6" type="curve" smooth="yes"/>
      <point x="348.127" y="-6"/>
      <point x="405.709" y="20.287"/>
      <point x="450" y="78" type="curve"/>
      <point x="482.101" y="24.498"/>
      <point x="540.556" y="-6"/>
      <point x="611" y="-6" type="curve" smooth="yes"/>
      <point x="683" y="-6"/>
      <point x="740.345" y="20.255"/>
      <point x="777" y="70" type="curve"/>
      <point x="777" y="0" type="line"/>
      <point x="863" y="0" type="line"/>
    </contour>
  </outline>
</glyph>
<glyph name="softcyr.loclBGR" format="2">
  <advance width="585"/>
  <outline>
    <contour>
      <point x="69" y="202.983" type="line"/>
      <point x="156" y="202.983" type="line"/>
      <point x="156" y="524" type="line"/>
      <point x="69" y="524" type="line"/>
    </contour>
    <contour>
      <point x="69" y="202.983" type="line"/>
      <point x="69" y="74.763"/>
      <point x="149.886" y="-9"/>
      <point x="283.381" y="-9" type="curve" smooth="yes"/>
      <point x="424.47" y="-9"/>
      <point x="517" y="74.175"/>
      <point x="517" y="201" type="curve" smooth="yes"/>
      <point x="517" y="327.545"/>
      <point x="439.295" y="411"/>
      <point x="321.469" y="411" type="curve" smooth="yes"/>
      <point x="258.199" y="411"/>
      <point x="214.54" y="406.667"/>
      <point x="136" y="372" type="curve"/>
      <point x="136" y="293" type="line"/>
      <point x="210.91" y="327.667"/>
      <point x="250.829" y="332"/>
      <point x="310.469" y="332" type="curve" smooth="yes"/>
      <point x="381.283" y="332"/>
      <point x="430" y="275.565"/>
      <point x="430" y="193.533" type="curve" smooth="yes"/>
      <point x="430" y="117.245"/>
      <point x="373.261" y="68"/>
      <point x="285.364" y="68" type="curve" smooth="yes"/>
      <point x="208.892" y="68"/>
      <point x="156" y="108.674"/>
      <point x="156" y="202.983" type="curve"/>
    </contour>
  </outline>
</glyph>
<glyph name="t_t" format="2">
  <advance width="714"/>
  <outline>
    <component base="t"/>
    <component base="t" xOffset="321.257"/>
    <contour>
      <point x="492.28" y="459" type="line"/>
      <point x="492.28" y="524" type="line"/>
      <point x="146.871" y="524" type="line"/>
      <point x="146.871" y="459" type="line"/>
    </contour>
  </outline>
</glyph>
<glyph name="three.dnom" format="2">
  <advance width="349"/>
  <outline>
    <contour>
      <point x="29.739" y="118" type="line"/>
      <point x="29.739" y="110" type="line" smooth="yes"/>
      <point x="29.739" y="36.846"/>
      <point x="81.819" y="-6"/>
      <point x="170.739" y="-6" type="curve" smooth="yes"/>
      <point x="261.178" y="-6"/>
      <point x="316.739" y="40.808"/>
      <point x="316.739" y="117" type="curve" smooth="yes"/>
      <point x="316.739" y="126" type="line" smooth="yes"/>
      <point x="316.739" y="176.667"/>
      <point x="294.405" y="210.333"/>
      <point x="249.739" y="227" type="curve"/>
      <point x="289.739" y="244.333"/>
      <point x="309.739" y="274"/>
      <point x="309.739" y="316" type="curve" smooth="yes"/>
      <point x="309.739" y="324" type="line" smooth="yes"/>
      <point x="309.739" y="392.82"/>
      <point x="257.702" y="434"/>
      <point x="170.739" y="434" type="curve" smooth="yes"/>
      <point x="83.469" y="434"/>
      <point x="31.739" y="390.83"/>
      <point x="31.739" y="318" type="curve" smooth="yes"/>
      <point x="31.739" y="311" type="line"/>
      <point x="102.739" y="311" type="line"/>
      <point x="102.739" y="318" type="line" smooth="yes"/>
      <point x="102.739" y="350.738"/>
      <point x="126.013" y="369"/>
      <point x="167.739" y="369" type="curve" smooth="yes"/>
      <point x="211.072" y="369"/>
      <point x="232.739" y="351.333"/>
      <point x="232.739" y="316" type="curve" smooth="yes"/>
      <point x="232.739" y="309" type="line" smooth="yes"/>
      <point x="232.739" y="272.333"/>
      <point x="209.739" y="254"/>
      <point x="163.739" y="254" type="curve" smooth="yes"/>
      <point x="139.739" y="254" type="line"/>
      <point x="139.739" y="188" type="line"/>
      <point x="163.739" y="188" type="line" smooth="yes"/>
      <point x="215.474" y="188"/>
      <point x="239.739" y="167.886"/>
      <point x="239.739" y="125" type="curve" smooth="yes"/>
      <point x="239.739" y="117" type="line" smooth="yes"/>
      <point x="239.739" y="78.333"/>
      <point x="216.405" y="59"/>
      <point x="169.739" y="59" type="curve" smooth="yes"/>
      <point x="123.739" y="59"/>
      <point x="100.739" y="76.667"/>
      <point x="100.739" y="112" type="curve" smooth="yes"/>
      <point x="100.739" y="118" type="line"/>
    </contour>
  </outline>
</glyph>
<glyph name="two.osf" format="2">
  <advance width="542"/>
  <outline>
    <contour>
      <point x="56" y="0" type="line"/>
      <point x="488" y="0" type="line"/>
      <point x="488" y="82" type="line"/>
      <point x="179" y="82" type="line"/>
      <point x="389" y="217" type="line" smooth="yes"/>
      <point x="453.241" y="258.298"/>
      <point x="482" y="305.92"/>
      <point x="482" y="371" type="curve" smooth="yes"/>
      <point x="482" y="383" type="line" smooth="yes"/>
      <point x="482" y="474.508"/>
      <point x="398.161" y="533"/>
      <point x="267" y="533" type="curve" smooth="yes"/>
      <point x="136.884" y="533"/>
      <point x="55" y="475.45"/>
      <point x="55" y="384" type="curve" smooth="yes"/>
      <point x="55" y="369" type="line"/>
      <point x="145" y="369" type="line"/>
      <point x="145" y="378" type="line" smooth="yes"/>
      <point x="145" y="423.817"/>
      <point x="187.563" y="449"/>
      <point x="265" y="449" type="curve" smooth="yes"/>
      <point x="342.02" y="449"/>
      <point x="389" y="423.237"/>
      <point x="389" y="381" type="curve" smooth="yes"/>
      <point x="389" y="372" type="line" smooth="yes"/>
      <point x="389" y="326.2"/>
      <point x="367.894" y="292.489"/>
      <point x="317" y="257" type="curve" smooth="yes"/>
      <point x="56" y="75" type="line"/>
    </contour>
  </outline>
</glyph>
<glyph name="two.sups" format="2">
  <advance width="354"/>
  <outline>
    <contour>
      <point x="36.472" y="440" type="line"/>
      <point x="320.472" y="440" type="line"/>
      <point x="320.472" y="509" type="line"/>
      <point x="147.472" y="509" type="line"/>
      <point x="256.472" y="626" type="line" smooth="yes"/>
      <point x="298.329" y="670.929"/>
      <point x="318.472" y="701.419"/>
      <point x="318.472" y="746" type="curve" smooth="yes"/>
      <point x="318.472" y="755" type="line" smooth="yes"/>
      <point x="318.472" y="829.364"/>
      <point x="265.584" y="874"/>
      <point x="177.472" y="874" type="curve" smooth="yes"/>
      <point x="86.601" y="874"/>
      <point x="32.472" y="828.83"/>
      <point x="32.472" y="753" type="curve" smooth="yes"/>
      <point x="32.472" y="743" type="line"/>
      <point x="109.472" y="743" type="line"/>
      <point x="109.472" y="751" type="line" smooth="yes"/>
      <point x="109.472" y="788.703"/>
      <point x="132.219" y="809"/>
      <point x="174.472" y="809" type="curve" smooth="yes"/>
      <point x="216.764" y="809"/>
      <point x="238.472" y="789.667"/>
      <point x="238.472" y="752" type="curve" smooth="yes"/>
      <point x="238.472" y="745" type="line" smooth="yes"/>
      <point x="238.472" y="721.553"/>
      <point x="227.76" y="701.504"/>
      <point x="199.472" y="672" type="curve" smooth="yes"/>
      <point x="36.472" y="502" type="line"/>
    </contour>
  </outline>
</glyph>
<glyph name="two.tosf" format="2">
  <advance width="562"/>
  <outline>
    <contour>
      <point x="66" y="0" type="line"/>
      <point x="498" y="0" type="line"/>
      <point x="498" y="82" type="line"/>
      <point x="189" y="82" type="line"/>
      <point x="399" y="217" type="line" smooth="yes"/>
      <point x="463.241" y="258.298"/>
      <point x="492" y="305.92"/>
      <point x="492" y="371" type="curve" smooth="yes"/>
      <point x="492" y="383" type="line" smooth="yes"/>
      <point x="492" y="474.508"/>
      <point x="408.161" y="533"/>
      <point x="277" y="533" type="curve" smooth="yes"/>
      <point x="146.884" y="533"/>
      <point x="65" y="475.45"/>
      <point x="65" y="384" type="curve" smooth="yes"/>
      <point x="65" y="369" type="line"/>
      <point x="155" y="369" type="line"/>
      <point x="155" y="378" type="line" smooth="yes"/>
      <point x="155" y="423.817"/>
      <point x="197.563" y="449"/>
      <point x="275" y="449" type="curve" smooth="yes"/>
      <point x="352.02" y="449"/>
      <point x="399" y="423.237"/>
      <point x="399" y="381" type="curve" smooth="yes"/>
      <point x="399" y="372" type="line" smooth="yes"/>
      <point x="399" y="326.2"/>
      <point x="377.894" y="292.489"/>
      <point x="327" y="257" type="curve" smooth="yes"/>
      <point x="66" y="75" type="line"/>
    </contour>
  </outline>
</glyph>
<glyph name="uni030A0301" format="2">
  <anchor x="0" y="578" name="_t.ring"/>
  <outline>
    <contour>
      <point x="-96.5" y="674" type="curve" smooth="yes"/>
      <point x="-96.5" y="618.659"/>
      <point x="-55.418" y="578"/>
      <point x="0.5" y="578" type="curve" smooth="yes"/>
      <point x="55.167" y="578"/>
      <point x="96.5" y="619.333"/>
      <point x="96.5" y="674" type="curve" smooth="yes"/>
      <point x="96.5" y="729.903"/>
      <point x="55.262" y="772"/>
      <point x="0.5" y="772" type="curve" smooth="yes"/>
      <point x="-55.214" y="772"/>
      <point x="-96.5" y="730.289"/>
    </contour>
    <contour>
      <point x="0.5" y="622" type="curve" smooth="yes"/>
      <point x="-30.167" y="622"/>
      <point x="-51.5" y="643.333"/>
      <point x="-51.5" y="674" type="curve" smooth="yes"/>
      <point x="-51.5" y="705.256"/>
      <point x="-29.599" y="728"/>
      <point x="0.5" y="728" type="curve" smooth="yes"/>
      <point x="29.648" y="728"/>
      <point x="51.5" y="704.863"/>
      <point x="51.5" y="674" type="curve" smooth="yes"/>
      <point x="51.5" y="643.594"/>
      <point x="30.321" y="622"/>
    </contour>
    <contour>
      <point x="-60.547" y="812.485" type="line"/>
      <point x="20.453" y="812.485" type="line"/>
      <point x="133.469" y="914" type="line"/>
      <point x="25.469" y="914" type="line"/>
    </contour>
  </outline>
</glyph>
<glyph name="vecyr.loclBGR" format="2">
  <advance width="585"/>
  <outline>
    <contour>
      <point x="69" y="203.355" type="line"/>
      <point x="69" y="76.505"/>
      <point x="162.886" y="-9"/>
      <point x="302.17" y="-9" type="curve" smooth="yes"/>
      <point x="431.877" y="-9"/>
      <point x="517" y="78.172"/>
      <point x="517" y="211" type="curve" smooth="yes"/>
      <point x="517" y="299.888"/>
      <point x="473.569" y="373.445"/>
      <point x="410.074" y="392.095" type="curve"/>
      <point x="410.074" y="397.847" type="line"/>
      <point x="463.007" y="425.49"/>
      <point x="497" y="465.964"/>
      <point x="497" y="532.549" type="curve" smooth="yes"/>
      <point x="497" y="637.78"/>
      <point x="411.749" y="707"/>
      <point x="293" y="707" type="curve" smooth="yes"/>
      <point x="148.235" y="707"/>
      <point x="69" y="625.364"/>
      <point x="69" y="488.539" type="curve"/>
      <point x="156" y="488.539" type="line"/>
      <point x="156" y="572.235"/>
      <point x="203.297" y="628"/>
      <point x="285" y="628" type="curve" smooth="yes"/>
      <point x="356.348" y="628"/>
      <point x="410" y="588.456"/>
      <point x="410" y="527.798" type="curve" smooth="yes"/>
      <point x="410" y="467.584"/>
      <point x="363.04" y="422"/>
      <point x="301.01" y="422" type="curve" smooth="yes"/>
      <point x="136" y="422" type="line"/>
      <point x="136" y="343" type="line"/>
      <point x="310.01" y="343" type="line" smooth="yes"/>
      <point x="384.784" y="343"/>
      <point x="430" y="287.579"/>
      <point x="430" y="195.928" type="curve" smooth="yes"/>
      <point x="430" y="114.437"/>
      <point x="384.716" y="70"/>
      <point x="301.671" y="70" type="curve" smooth="yes"/>
      <point x="222.338" y="70"/>
      <point x="156" y="122.701"/>
      <point x="156" y="203.355" type="curve"/>
    </contour>
    <contour>
      <point x="69" y="203.355" type="line"/>
      <point x="156" y="203.355" type="line"/>
      <point x="156" y="488.539" type="line"/>
      <point x="69" y="488.539" type="line"/>
    </contour>
  </outline>
</glyph>
<glyph name="zacute.loclPLK" format="2">
  <advance width="512"/>
  <outline>
    <component base="z"/>
    <contour>
      <point x="213" y="586" type="line"/>
      <point x="295" y="586" type="line"/>
      <point x="361" y="717" type="line"/>
      <point x="252" y="717" type="line"/>
    </contour>
  </outline>
</glyph>
<glyph name="zero.dnom" format="2">
  <advance width="369"/>
  <outline>
    <contour>
      <point x="40" y="149.864" type="line" smooth="yes"/>
      <point x="40" y="52.199"/>
      <point x="87.556" y="-6"/>
      <point x="183.92" y="-6" type="curve" smooth="yes"/>
      <point x="281.541" y="-6"/>
      <point x="329" y="51.715"/>
      <point x="329" y="149.864" type="curve" smooth="yes"/>
      <point x="329" y="283.304" type="line" smooth="yes"/>
      <point x="329" y="379.225"/>
      <point x="282.592" y="434"/>
      <point x="183.92" y="434" type="curve" smooth="yes"/>
      <point x="89.152" y="434"/>
      <point x="40" y="376.173"/>
      <point x="40" y="283.304" type="curve" smooth="yes"/>
    </contour>
    <contour>
      <point x="184" y="53" type="curve" smooth="yes"/>
      <point x="129.357" y="53"/>
      <point x="110" y="84.304"/>
      <point x="110" y="144.444" type="curve" smooth="yes"/>
      <point x="110" y="285.84" type="line" smooth="yes"/>
      <point x="110" y="344.18"/>
      <point x="129.059" y="374"/>
      <point x="184" y="374" type="curve" smooth="yes"/>
      <point x="237.9" y="374"/>
      <point x="258" y="343.074"/>
      <point x="258" y="285.84" type="curve" smooth="yes"/>
      <point x="258" y="144.444" type="line" smooth="yes"/>
      <point x="258" y="84.857"/>
      <point x="238.14" y="53"/>
    </contour>
  </outline>
</glyph>
<glyph name="zero.numr" format="2">
  <advance width="370"/>
  <outline>
    <contour>
      <point x="40.869" y="429.142" type="line" smooth="yes"/>
      <point x="40.869" y="331.477"/>
      <point x="88.425" y="273.278"/>
      <point x="184.789" y="273.278" type="curve" smooth="yes"/>
      <point x="282.41" y="273.278"/>
      <point x="329.869" y="330.993"/>
      <point x="329.869" y="429.142" type="curve" smooth="yes"/>
      <point x="329.869" y="562.581" type="line" smooth="yes"/>
      <point x="329.869" y="658.503"/>
      <point x="283.461" y="713.278"/>
      <point x="184.789" y="713.278" type="curve" smooth="yes"/>
      <point x="90.021" y="713.278"/>
      <point x="40.869" y="655.45"/>
      <point x="40.869" y="562.581" type="curve" smooth="yes"/>
    </contour>
    <contour>
      <point x="184.869" y="332.278" type="curve" smooth="yes"/>
      <point x="130.226" y="332.278"/>
      <point x="110.869" y="363.582"/>
      <point x="110.869" y="423.721" type="curve" smooth="yes"/>
      <point x="110.869" y="565.118" type="line" smooth="yes"/>
      <point x="110.869" y="623.458"/>
      <point x="129.928" y="653.278"/>
      <point x="184.869" y="653.278" type="curve" smooth="yes"/>
      <point x="238.769" y="653.278"/>
      <point x="258.869" y="622.352"/>
      <point x="258.869" y="565.118" type="curve" smooth="yes"/>
      <point x="258.869" y="423.721" type="line" smooth="yes"/>
      <point x="258.869" y="364.135"/>
      <point x="239.01" y="332.278"/>
    </contour>
  </outline>
</glyph>
<glyph name="zero.sups" format="2">
  <advance width="369"/>
  <outline>
    <contour>
      <point x="40" y="582.864" type="line" smooth="yes"/>
      <point x="40" y="485.199"/>
      <point x="87.556" y="427"/>
      <point x="183.92" y="427" type="curve" smooth="yes"/>
      <point x="281.541" y="427"/>
      <point x="329" y="484.715"/>
      <point x="329" y="582.864" type="curve" smooth="yes"/>
      <point x="329" y="716.304" type="line" smooth="yes"/>
      <point x="329" y="812.225"/>
      <point x="282.592" y="867"/>
      <point x="183.92" y="867" type="curve" smooth="yes"/>
      <point x="89.152" y="867"/>
      <point x="40" y="809.173"/>
      <point x="40" y="716.304" type="curve" smooth="yes"/>
    </contour>
    <contour>
      <point x="184" y="486" type="curve" smooth="yes"/>
      <point x="129.357" y="486"/>
      <point x="110" y="517.304"/>
      <point x="110" y="577.444" type="curve" smooth="yes"/>
      <point x="110" y="718.84" type="line" smooth="yes"/>
      <point x="110" y="777.18"/>
      <point x="129.059" y="807"/>
      <point x="184" y="807" type="curve" smooth="yes"/>
      <point x="237.9" y="807"/>
      <point x="258" y="776.074"/>
      <point x="258" y="718.84" type="curve" smooth="yes"/>
      <point x="258" y="577.444" type="line" smooth="yes"/>
      <point x="258" y="517.857"/>
      <point x="238.14" y="486"/>
    </contour>
  </outline>
</glyph>
